/* XPM */
static char *result[] = {
/* columns rows colors chars-per-pixel */
"64 64 192 2 ",
"   c #000D1A",
".  c #120E1F",
"X  c #00111D",
"o  c #0B111F",
"O  c #031624",
"+  c #0B1625",
"@  c #021A25",
"#  c #0B1926",
"$  c #06162C",
"%  c #0C162A",
"&  c #051B2A",
"*  c #0B1A2B",
"=  c #101626",
"-  c #121A26",
";  c #14152A",
":  c #131C2B",
">  c #1C1C2D",
",  c #0A1D33",
"<  c #1C1E30",
"1  c #2F1C32",
"2  c #351C32",
"3  c #00202B",
"4  c #0A202E",
"5  c #13202C",
"6  c #1E2230",
"7  c #252435",
"8  c #292434",
"9  c #2B2539",
"0  c #2C2B3A",
"q  c #242C39",
"w  c #322737",
"e  c #33263B",
"r  c #352B3C",
"t  c #39273C",
"y  c #3C2C43",
"u  c #3C3242",
"i  c #3D374A",
"p  c #433346",
"a  c #463549",
"s  c #4B334D",
"d  c #4F394D",
"f  c #57374F",
"g  c #51384E",
"h  c #5B3C4E",
"j  c #4F3954",
"k  c #5D3B53",
"l  c #553A53",
"z  c #683D5A",
"x  c #46404E",
"c  c #4A4153",
"v  c #4E4558",
"b  c #53485B",
"n  c #67415A",
"m  c #6C445D",
"M  c #76445E",
"N  c #6F4460",
"B  c #674E63",
"V  c #794363",
"C  c #744D67",
"Z  c #7A4C69",
"A  c #794861",
"S  c #675064",
"D  c #70596E",
"F  c #785772",
"G  c #796075",
"H  c #9C4B5E",
"J  c #824767",
"K  c #874B65",
"L  c #834C6A",
"P  c #8D4C6C",
"I  c #8D406C",
"U  c #954B64",
"Y  c #9A4E65",
"T  c #954C6C",
"R  c #9A4E6D",
"E  c #914663",
"W  c #8D526D",
"Q  c #87526E",
"!  c #935165",
"~  c #9B5363",
"^  c #95516D",
"/  c #9B526D",
"(  c #9C586F",
")  c #8D4C70",
"_  c #944D71",
"`  c #9A4E72",
"'  c #9A4D7A",
"]  c #8D5777",
"[  c #955472",
"{  c #9C5372",
"}  c #945873",
"|  c #9B5975",
" . c #9E547A",
".. c #9C5A7A",
"X. c #A14D6E",
"o. c #A25265",
"O. c #A75967",
"+. c #A2566C",
"@. c #AA5D6E",
"#. c #A65A6D",
"$. c #A34E72",
"%. c #A25474",
"&. c #A95572",
"*. c #A55A75",
"=. c #AB5E74",
"-. c #A45579",
";. c #A95479",
":. c #A3597A",
">. c #B05177",
",. c #86697E",
"<. c #AC6174",
"1. c #A4637E",
"2. c #B46474",
"3. c #BC6D7D",
"4. c #B86579",
"5. c #C86C77",
"6. c #C26E79",
"7. c #C4737B",
"8. c #CB747C",
"9. c #CD787D",
"0. c #F5957C",
"q. c #A75D80",
"w. c #8C6781",
"e. c #8B6B83",
"r. c #96728B",
"t. c #9D718C",
"y. c #A66786",
"u. c #AB6A85",
"i. c #AE6D88",
"p. c #AB6683",
"a. c #B26883",
"s. c #AF708B",
"d. c #A4778E",
"f. c #B1738E",
"g. c #BE748F",
"h. c #A57993",
"j. c #B67C95",
"k. c #BA7B96",
"l. c #B77F99",
"z. c #BB7E99",
"x. c #B57691",
"c. c #CE7E84",
"v. c #C87887",
"b. c #D27D83",
"n. c #C27E9B",
"m. c #AE8196",
"M. c #B78296",
"N. c #B4859B",
"B. c #BC849D",
"V. c #B6899D",
"C. c #BB899F",
"Z. c #B98695",
"A. c #BD86A2",
"S. c #BD89A1",
"D. c #B98BA5",
"F. c #BE92A9",
"G. c #D48486",
"H. c #DA858D",
"J. c #D6898F",
"K. c #DB8689",
"L. c #C2839E",
"P. c #D68492",
"I. c #DF9093",
"U. c #E78C8C",
"Y. c #E2928A",
"T. c #F49B85",
"R. c #FC9C83",
"E. c #FF9E8B",
"W. c #F6948C",
"Q. c #E79395",
"!. c #EF9E9D",
"~. c #EB9A97",
"^. c #F29C94",
"/. c #FB9E94",
"(. c #F49E9D",
"). c #F79B99",
"_. c #FFA08E",
"`. c #FEA293",
"'. c #FDA39C",
"]. c #F7A99C",
"[. c #FFA99F",
"{. c #F6A19C",
"}. c #C385A1",
"|. c #CA86A4",
" X c #C38AA3",
".X c #C889A6",
"XX c #C48EA8",
"oX c #CB8CA9",
"OX c #CB90AC",
"+X c #D390AF",
"@X c #CB93B0",
"#X c None",
/* pixels */
"#X#X#X#X#X#X#X#X#X#X#X#X#X#X#X#X#X#X#X#X#X#X#X#X#X#X#X#X#X#X#X#X#X#X#X#X#X#X#X#X#X#X#X#X#X#X#X#X#X#X#X#X#X#X#X#X#X#X#X#X#X#X#X#X",
"#X#X#X#X#X#X#X#X#X#X#X#X#X#X#X#X#X#X#X#X#X#X#X#X#X#X#X#X#X#X#X#X#X#X#X#X#X#X#X#X#X#X#X#X#X#X#X#X#X#X#X#X#X#X#X#X#X#X#X#X#X#X#X#X",
"#X#X#X#X#X#X#X#X#X#X#X#X#X#X#X#X#X#X#X#X#X#X#X#X#X#X#X#X#X#X#X#X#X#X#X#X#X#X#X#X#X#X#X#X#X#X#X#X#X#X#X#X#X#X#X#X#X#X#X#X#X#X#X#X",
"#X#X#X#X#X#X#X#X#X#X#X#X#X#X#X#X#X#X#X#X#X#X#X#X#X#X#X#X#X#X#X#X#X#X#X#X#X#X#X#X#X#X#X#X#X#X#X#X#X#X#X#X#X#X#X#X#X#X#X#X#X#X#X#X",
"#X#X#X#X#X#X#X#X#X#X#X#X#X#X#X#X#X#X#X#X#X#X#X#X#X#X#X#X#X#X#X#X#X#X#X#X#X#X#X#X#X#X#X#X#X#X#X#X#X#X#X#X#X#X#X#X#X#X#X#X#X#X#X#X",
"#X#X#X#X#X#X#X#X#X#X#X#X#X#X#X#X#X#X#X#X#X#X#X#X#X#X#X#X#X#X#X#X#X#X#X#X#X#X#X#X#X#X#X#X#X#X#X#X#X#X#X#X#X#X#X#X#X#X#X#X#X#X#X#X",
"#X#X#X#X#X#X#X#X#X#X#X#X#X#X#X#X#X#X#X#X#X#X#X#X#X#X#X#X#X#X#X#X#X#X#X#X#X#X#X#X#X#X#X#X#X#X#X#X#X#X#X#X#X#X#X#X#X#X#X#X#X#X#X#X",
"#X#X#X#X#X#X#X#X#X#X#X#X#X#X#X#X#X#X#X#X#X#X#X#X#X#X#X#X#X#X#X#X#X#X#X#X#X#X#X#X#X#X#X#X#X#X#X#X#X#X#X#X#X#X#X#X#X#X#X#X#X#X#X#X",
"#X#X#X#X#X#X#X#X#X#X#X#X#X#X#X#X#X#X#X#X#X#X#X#X#X, , @ @ O # - * + O O & , #X#X#X#X#X#X#X#X#X#X#X#X#X#X#X#X#X#X#X#X#X#X#X#X#X#X",
"#X#X#X#X#X#X#X#X#X#X#X#X#X#X#X#X#X#X#X#X#X#X#X#X@ @ < j F w.r.h.t.,.D v q + O #X#X#X#X#X#X#X#X#X#X#X#X#X#X#X#X#X#X#X#X#X#X#X#X#X",
"#X#X#X#X#X#X#X#X#X#X#X#X#X#X#X#X#X#X#X#X#X#X#XX w D N.oX|.|.|.C.C.XXoX.XM.e.d # + #X#X#X#X#X#X#X#X#X#X#X#X#X#X#X#X#X#X#X#X#X#X#X",
"#X#X#X#X#X#X#X#X#X#X#X#X#X#X#X#X#X#X#X#X#X#X: S A. X}.l.j.C.C.M.Z.B.z.k.L.OXD.d.d o #X#X#X#X#X#X#X#X#X#X#X#X#X#X#X#X#X#X#X#X#X#X",
"#X#X#X#X#X#X#X#X#X#X#X#X#X#X#X#X#X#X#X#X#X> ,.XX}.l.N.V.D.B.B.L.L.L.L.A.B.l.z.|.@Xe.7 O #X#X#X#X#X#X#X#X#X#X#X#X#X#X#X#X#X#X#X#X",
"#X#X#X#X#X#X#X#X#X#X#X#X#X#X#X#X#X#X#X#X< h.}.S.B.A.D.B.z.L.A.L.C.N.B.C.A.B.B.B.x.+XD.j   #X#X#X#X#X#X#X#X#X#X#X#X#X#X#X#X#X#X#X",
"#X#X#X#X#X#X#X#X#X#X#X#X#X#X#X#X#X#X#X+ e.}.n.M.L.z.z.n.L.B.l.V.B.B.V.N.V.C.L.n.S.k.n.F.b   #X#X#X#X#X#X#X#X#X#X#X#X#X#X#X#X#X#X",
"#X#X#X#X#X#X#X#X#X#X#X#X#X#X#X#X#X#XO S XXM.C.B.C.C.B.C.B.B.C.}.L.L.L.L.B.z.B.V.V.V.L.n.D.i #X#X#X#X#X#X#X#X#X#X#X#X#X#X#X#X#X#X",
"#X#X#X#X#X#X#X#X#X#X#X#X#X#X#X#X#X#X0 V.S.N.N.C.B.B.B.B.B.B.B.B.B.C.L.B.B.B.B.B.B.A.A.m.|.h.: #X#X#X#X#X#X#X#X#X#X#X#X#X#X#X#X#X",
"#X#X#X#X#X#X#X#X#X#X#X#X#X$ $ @ * . F F.j.n.L.L.B.B.A.B.B.B.B.B.B.B.B.B.B.B.B.B.L.M.A.B.L.S.b O #X#X#X#X#X#X#X#X#X#X#X#X#X#X#X#X",
"#X#X#X#X#X#X#X#X#X#X#X$ @ + 9 j Z L y.A.N.|.L.V.B.B.B.B.B.B.B.B.B.B.B.B.B.B.B.B.C.z.L.L.M..Xr.% #X#X#X#X#X#X#X#X#X#X#X#X#X#X#X#X",
"#X#X#X#X#X#X#X#X#XX O 7 k K { ;.%.;.R k.L.M.B.N.B.B.B.B.B.B.B.B.B.B.B.B.B.B.B.B.V.L.B.L.B.C.B.q # #X#X#X#X#X#X#X#X#X#X#X#X#X#X#X",
"#X#X#X#X#X#X#X@ @ i V -.&.R +.R R ^ [ p.L.L.C.L.B.B.B.B.B.B.B.B.B.B.B.B.B.B.B.B.N.|.B.B.N.M.oXx @ #X#X#X#X#X#X#X#X#X#X#X#X#X#X#X",
"#X#X#X#X#X@ : e I P ^ W T ..[ ^ %.^ [ U u.C.B.}.B.B.B.B.B.B.B.B.B.B.B.B.B.B.B.B.M.C.B.B.B.L.oXZ # + #X#X#X#X#X#X#X#X#X#X#X#X#X#X",
"#X#X#X* & 7 z %.^ 3.H.8.+.{ T -.R R R :.U u.C.C.B.B.B.B.B.B.B.B.B.B.B.B.B.B.B.B.B.B.N.D.C.n.f.^ Q d 5 O #X#X#X#X#X#X#X#X#X#X#X#X",
"#X#X& O y ) ;.T 4.'.E.`.7.E :.T } { R `  .R -.f.A.B.B.B.B.B.B.B.B.B.B.A.B.B.B.B.L.B.B.N.L.g.W %.%.-.P s * #X#X#X#X#X#X#X#X#X#X#X",
"#X: $ a / +.%._ 9./.0.E.H.`  .R ^  .%.^ { %.R ' 1.f.z. XA.D.B.Z.B.B.B.N.B.N.B.A.C.C.L.L.a.^ T { ^ | { *.A 9 $ #X#X#X#X#X#X#X#X#X",
"& * y -.| ^ ^ ` @.(.[.^.3.U  ./ { ! R %./ ^ | ^ R ^ | p.f.j.B.}.L.}.C.A.}. X}.A.z.k.i.{ T { { R { Y ^ { ;.{ h = & #X#X#X#X#X#X#X",
"& 7 ..%.R } { / P 4.6.4.+.^ ^ ^ { / {  ./ ^ T ~ -.R T U ~ / ;.:.i.s.f.f.x.s.i.u.| { ^ { / { { %.T -.{ _ { %./ M 1 X #X#X#X#X#X#X",
"O k *.T { $.^ / [ T R R ^ ^ { { T R O.o.`  ./  .R R { -.%.%.| ` T ^ { ^ ^ T T T %.^  .{ R R ` R | ` R @.#.K  .;.] w & #X#X#X#X#X",
"O k &.^ { $.^ / [  .-.-.R { %.[ / c.{.^.3.U R _ ( { ` ` _ ` / / { %.{ / ^ { %.+.^ R { %.| %.} / ) ( J./.U.=.^ [ |  .y @ #X#X#X#X",
"#X6 | ` R } / { ^ R ^ / { { %.R <.^._.`.Y.O. .+.! /  . ./ / ^ { ` { R { { { ^ R %.^ ^ { T T ^ { { 6.`.T./.K.Y } R R :.p O #X#X#X",
"#X+ y -.| ^ ^ ' %.^ / ( { ` ^ / *.^.R._.Y./ _ / } { R o.O.~ U  .{ R ^ { +.^ R / U ^ %.{ { | %.T _ 5.`.T.].G.H  .$...R  .u   #X#X",
"#X#X$ a { +.&.[ ' R ( ^ T  .^ / ^ v.W.W.4._ | { ` R &.c.(.H.=.` {  .{ { R T *.a.v.=.T R { R ` { [ / G./.U.@.^ R ^ R ^ | ^ t & #X",
"#X#X#XO y Z  .%.[ [ ` { [ { %.%.^ ^ +.{ +.R R $.| U 7.'.R./.b.U ^ +.X.R -.Y 8.`._.^.o. .{ U / %.^ R / %.{ { ^ | ^ %.^ R %.L ; , ",
"#X#X#X#XO > f [ &.%.R { R R ^ ^ %.{ { { [ } { | ` ^ 9.'.0.'.P.) | R R  ._ / Q.`.T.'.=.` %.{ { R / ^ ^ { { T ^ ^ $.T { | X.-.s @ ",
"#X#X#X#X#XO - 8 z [ -.%.^ | +.R { ^ ^ ` ` { _ R  .T =.I.(.Q.2.T { ^ ` { [ ~ G.{.`.~.@.^ ^ / ^ ` { %.{ { %.%.&.X. .%.` { ^ :.z 5 ",
"#X#X#X#X#X#X& @ @ 8 k ^ ;.X./ } R / ` %.{ { { { / { U ` =.O.Y } { ` -.R | ! O.9.G.2.U { { { { / / / { ^ R ^ X.R U  .^ / ^ :.M = ",
"#X#X#X#X#X#X#X#X& * & 6 a Z ..-.%.{ / / T ^ %.%.R { -.{ T { %.T / T :._ ` { T R o.U `  .R %.+.^ R R { { } } [ } ( { T :.:.n 6 * ",
"#X#X#X#X#X#X#X#X#X* % = % = e l P T %.;.&.R ^ Q | R T { { ^ | ` / R ^ %.{  .-.T ' -. .[ { { R %.%.| $.` R R R ` +.{ | V 2 & #X#X",
"#X#X#X#X#X#X#X#X#X#X#X#X#X# * @ : 9 g V [ %.-.;.T :./ / / R `  ./ %.^ { %.T {  .` ` R ^ { { R ^ ^ ^ R +.&.-.:.| J f 9 # + #X#X#X",
"#X#X#X#X#X#X#X#X#X#X#X#X#X#X#X#X* & @ @ 5 w z V T / / &.%.%.{ { { { { T R +.R [ { ^ / / R { :.{ -.&.-.^ L n p 8 * @ $ * #X#X#X#X",
"#X#X#X#X#X#X#X#X#X#X#X#X#X#X#X#X#X#X#X#X& * + & > 9 p k N V T { {  .%.%.-.;.&.&.-.%. .` { W L V z g y 7 : & $ * * #X#X#X#X#X#X#X",
"#X#X#X#X#X#X#X#X#X#X#X#X#X#X#X#X#X#X#X#X#X#X#X#X3 & @ O + - 5 6 w r r u p a a a u u r w 9 6 : = @ @ @ & & * #X#X#X#X#X#X#X#X#X#X",
"#X#X#X#X#X#X#X#X#X#X#X#X#X#X#X#X#X#X#X#X#X#X#X#X#X#X#X#X#X& & & @ @ @ & @ @ @ O + O O $ & & $ #X#X#X#X#X#X#X#X#X#X#X#X#X#X#X#X#X",
"#X#X#X#X#X#X#X#X#X#X#X#X#X#X#X#X#X#X#X#X#X#X#X#X#X#X#X#X#X#X#X#X#X#X#X#X#X#X#X#X#X#X#X#X#X#X#X#X#X#X#X#X#X#X#X#X#X#X#X#X#X#X#X#X",
"#X#X#X#X#X#X#X#X#X#X#X#X#X#X#X#X#X#X#X#X#X#X#X#X#X#X#X#X#X#X#X#X#X#X#X#X#X#X#X#X#X#X#X#X#X#X#X#X#X#X#X#X#X#X#X#X#X#X#X#X#X#X#X#X",
"#X#X#X#X#X#X#X#X#X#X#X#X#X#X#X#X#X#X#X#X#X#X#X#X#X#X#X#X#X#X#X#X#X#X#X#X#X#X#X#X#X#X#X#X#X#X#X#X#X#X#X#X#X#X#X#X#X#X#X#X#X#X#X#X",
"#X#X#X#X#X#X#X#X#X#X#X#X#X#X#X#X#X#X#X#X#X#X#X#X#X#X#X#X#X#X#X#X#X#X#X#X#X#X#X#X#X#X#X#X#X#X#X#X#X#X#X#X#X#X#X#X#X#X#X#X#X#X#X#X",
"#X#X#X#X#X#X#X#X#X#X#X#X#X#X#X#X#X#X#X#X#X#X#X#X#X#X#X#X#X#X#X#X#X#X#X#X#X#X#X#X#X#X#X#X#X#X#X#X#X#X#X#X#X#X#X#X#X#X#X#X#X#X#X#X",
"#X#X#X#X#X#X#X#X#X#X#X#X#X#X#X#X#X#X#X#X#X#X#X#X#X#X#X#X#X#X#X#X#X#X#X#X#X#X#X#X#X#X#X#X#X#X#X#X#X#X#X#X#X#X#X#X#X#X#X#X#X#X#X#X",
"#X#X#X#X#X#X#X#X#X#X#X#X#X#X#X#X#X#X#X#X#X#X#X#X#X#X#X#X#X#X#X#X#X#X#X#X#X#X#X#X#X#X#X#X#X#X#X#X#X#X#X#X#X#X#X#X#X#X#X#X#X#X#X#X",
"#X#X#X#X#X#X#X#X#X#X#X#X#X#X#X#X#X#X#X#X#X#X#X#X#X#X#X#X#X#X#X#X#X#X#X#X#X#X#X#X#X#X#X#X#X#X#X#X#X#X#X#X#X#X#X#X#X#X#X#X#X#X#X#X",
"#X#X#X#X#X#X#X#X#X#X#X#X#X#X#X#X#X#X#X#X#X#X#X#X#X#X#X#X#X#X#X#X#X#X#X#X#X#X#X#X#X#X#X#X#X#X#X#X#X#X#X#X#X#X#X#X#X#X#X#X#X#X#X#X",
"#X#X#X#X#X#X#X#X#X#X#X#X#X#X#X#X#X#X#X#X#X#X#X#X#X#X#X#X#X#X#X#X#X#X#X#X#X#X#X#X#X#X#X#X#X#X#X#X#X#X#X#X#X#X#X#X#X#X#X#X#X#X#X#X",
"#X#X#X#X#X#X#X#X#X#X#X#X#X#X#X#X#X#X#X#X#X#X#X#X#X#X#X#X#X#X#X#X#X#X#X#X#X#X#X#X#X#X#X#X#X#X#X#X#X#X#X#X#X#X#X#X#X#X#X#X#X#X#X#X",
"#X#X#X#X#X#X#X#X#X#X#X#X#X#X#X#X#X#X#X#X#X#X#X#X#X#X#X#X#X#X#X#X#X#X#X#X#X#X#X#X#X#X#X#X#X#X#X#X#X#X#X#X#X#X#X#X#X#X#X#X#X#X#X#X",
"#X#X#X#X#X#X#X#X#X#X#X#X#X#X#X#X#X#X#X#X#X#X#X#X#X#X#X#X#X#X#X#X#X#X#X#X#X#X#X#X#X#X#X#X#X#X#X#X#X#X#X#X#X#X#X#X#X#X#X#X#X#X#X#X",
"#X#X#X#X#X#X#X#X#X#X#X#X#X#X#X#X#X#X#X#X#X#X#X#X#X#X#X#X#X#X#X#X#X#X#X#X#X#X#X#X#X#X#X#X#X#X#X#X#X#X#X#X#X#X#X#X#X#X#X#X#X#X#X#X",
"#X#X#X#X#X#X#X#X#X#X#X#X#X#X#X#X#X#X#X#X#X#X#X#X#X#X#X#X#X#X#X#X#X#X#X#X#X#X#X#X#X#X#X#X#X#X#X#X#X#X#X#X#X#X#X#X#X#X#X#X#X#X#X#X",
"#X#X#X#X#X#X#X#X#X#X#X#X#X#X#X#X#X#X#X#X#X#X#X#X#X#X#X#X#X#X#X#X#X#X#X#X#X#X#X#X#X#X#X#X#X#X#X#X#X#X#X#X#X#X#X#X#X#X#X#X#X#X#X#X",
"#X#X#X#X#X#X#X#X#X#X#X#X#X#X#X#X#X#X#X#X#X#X#X#X#X#X#X#X#X#X#X#X#X#X#X#X#X#X#X#X#X#X#X#X#X#X#X#X#X#X#X#X#X#X#X#X#X#X#X#X#X#X#X#X",
"#X#X#X#X#X#X#X#X#X#X#X#X#X#X#X#X#X#X#X#X#X#X#X#X#X#X#X#X#X#X#X#X#X#X#X#X#X#X#X#X#X#X#X#X#X#X#X#X#X#X#X#X#X#X#X#X#X#X#X#X#X#X#X#X",
"#X#X#X#X#X#X#X#X#X#X#X#X#X#X#X#X#X#X#X#X#X#X#X#X#X#X#X#X#X#X#X#X#X#X#X#X#X#X#X#X#X#X#X#X#X#X#X#X#X#X#X#X#X#X#X#X#X#X#X#X#X#X#X#X",
"#X#X#X#X#X#X#X#X#X#X#X#X#X#X#X#X#X#X#X#X#X#X#X#X#X#X#X#X#X#X#X#X#X#X#X#X#X#X#X#X#X#X#X#X#X#X#X#X#X#X#X#X#X#X#X#X#X#X#X#X#X#X#X#X",
"#X#X#X#X#X#X#X#X#X#X#X#X#X#X#X#X#X#X#X#X#X#X#X#X#X#X#X#X#X#X#X#X#X#X#X#X#X#X#X#X#X#X#X#X#X#X#X#X#X#X#X#X#X#X#X#X#X#X#X#X#X#X#X#X"
};
