/* XPM */
static char *result[] = {
/* columns rows colors chars-per-pixel */
"64 64 159 2 ",
"   c #020C1C",
".  c #03131E",
"X  c #020E22",
"o  c #0F0B21",
"O  c #031324",
"+  c #0D1625",
"@  c #051824",
"#  c #0D1824",
"$  c #041629",
"%  c #0B162A",
"&  c #131427",
"*  c #13152B",
"=  c #131A2C",
"-  c #1C192D",
";  c #1C1D31",
":  c #211E33",
">  c #16202C",
",  c #1E202F",
"<  c #192232",
"1  c #1F2439",
"2  c #222235",
"3  c #282336",
"4  c #222638",
"5  c #2C233A",
"6  c #2C293B",
"7  c #302137",
"8  c #33273C",
"9  c #3E243E",
"0  c #332A3E",
"q  c #3A283D",
"w  c #41283F",
"e  c #352C41",
"r  c #3B2B40",
"t  c #353145",
"y  c #3B3346",
"u  c #3C354C",
"i  c #422D44",
"p  c #463047",
"a  c #483247",
"s  c #4C314A",
"d  c #403A4E",
"f  c #54344E",
"g  c #483F53",
"h  c #563250",
"j  c #5A3651",
"k  c #5D3A55",
"l  c #613552",
"z  c #633B56",
"x  c #663D5A",
"c  c #6D3D5B",
"v  c #733F5C",
"b  c #364252",
"n  c #4C4155",
"m  c #514257",
"M  c #5E455B",
"N  c #5A4A5E",
"B  c #60495E",
"V  c #72405D",
"C  c #684F66",
"Z  c #754462",
"A  c #7C4563",
"S  c #764A66",
"D  c #73596F",
"F  c #636F78",
"G  c #7D6176",
"H  c #834665",
"J  c #844965",
"K  c #894769",
"L  c #874A6A",
"P  c #8C4B6B",
"I  c #964C65",
"U  c #934C6C",
"Y  c #9B4E6D",
"T  c #96516F",
"R  c #9B516E",
"E  c #944D70",
"W  c #9C4F72",
"Q  c #965272",
"!  c #9C5172",
"~  c #9F5875",
"^  c #9D5379",
"/  c #A3556C",
"(  c #A55A6B",
")  c #A95B6D",
"_  c #A24E72",
"`  c #A25374",
"'  c #A85674",
"]  c #A35A74",
"[  c #AA5C74",
"{  c #A25779",
"}  c #A25D7A",
"|  c #AE5F7A",
" . c #B45F75",
".. c #87637A",
"X. c #8E687F",
"o. c #AE6175",
"O. c #A6617F",
"+. c #AF647E",
"@. c #B26375",
"#. c #BB6776",
"$. c #BC6A75",
"%. c #B2647A",
"&. c #B26A7E",
"*. c #BB6B7B",
"=. c #BC707E",
"-. c #C26F7D",
";. c #C6757E",
":. c #A75D80",
">. c #8E6782",
",. c #926D84",
"<. c #9D6F89",
"1. c #9D758D",
"2. c #A66482",
"3. c #AA6684",
"4. c #AA6884",
"5. c #AF6F89",
"6. c #B16D88",
"7. c #B0708A",
"8. c #AB7794",
"9. c #A57992",
"0. c #AD7C96",
"q. c #B57792",
"w. c #B57995",
"e. c #BB7C96",
"r. c #B47F99",
"t. c #B87C98",
"y. c #C07084",
"u. c #C87781",
"i. c #CE7F85",
"p. c #D17C85",
"a. c #B5849C",
"s. c #BD859E",
"d. c #BA889E",
"f. c #BE86A0",
"g. c #BE88A1",
"h. c #D68686",
"j. c #DB8386",
"k. c #DC868B",
"l. c #D98889",
"z. c #C1849E",
"x. c #E38C8C",
"c. c #EB948C",
"v. c #EF998F",
"b. c #FE9F87",
"n. c #F2968D",
"m. c #F39B8D",
"M. c #FC9D8D",
"N. c #E18E90",
"B. c #E49190",
"V. c #EF9A95",
"C. c #F09791",
"Z. c #F19A92",
"A. c #F7A08B",
"S. c #FDA28D",
"D. c #FDA393",
"F. c #C286A1",
"G. c #C887A3",
"H. c #C289A2",
"J. c None",
/* pixels */
"J.J.J.J.J.J.J.J.J.J.J.J.J.J.J.J.J.J.J.J.J.J.J.J.J.J.J.J.J.J.J.J.J.J.J.J.J.J.J.J.J.J.J.J.J.J.J.J.J.J.J.J.J.J.J.J.J.J.J.J.J.J.J.J.",
"J.J.J.J.J.J.J.J.J.J.J.J.J.J.J.J.J.J.J.J.J.J.J.J.J.J.J.J.J.J.J.J.J.J.J.J.J.J.J.J.J.J.J.J.J.J.J.J.J.J.J.J.J.J.J.J.J.J.J.J.J.J.J.J.",
"J.J.J.J.J.J.J.J.J.J.J.J.J.J.J.J.J.J.J.J.J.J.J.J.J.J.J.J.J.J.J.J.J.J.J.J.J.J.J.J.J.J.J.J.J.J.J.J.J.J.J.J.J.J.J.J.J.J.J.J.J.J.J.J.",
"J.J.J.J.J.J.J.J.J.J.J.J.J.J.J.J.J.J.J.J.J.J.J.J.J.J.J.J.J.J.J.J.J.J.J.J.J.J.J.J.J.J.J.J.J.J.J.J.J.J.J.J.J.J.J.J.J.J.J.J.J.J.J.J.",
"J.J.J.J.J.J.J.J.J.J.J.J.J.J.J.J.J.J.J.J.J.J.J.J.J.J.J.J.J.J.J.J.J.J.J.J.J.J.J.J.J.J.J.J.J.J.J.J.J.J.J.J.J.J.J.J.J.J.J.J.J.J.J.J.",
"J.J.J.J.J.J.J.J.J.J.J.J.J.J.J.J.J.J.J.J.J.J.J.J.J.J.J.J.J.J.J.J.J.J.J.J.J.J.J.J.J.J.J.J.J.J.J.J.J.J.J.J.J.J.J.J.J.J.J.J.J.J.J.J.",
"J.J.J.J.J.J.J.J.J.J.J.J.J.J.J.J.J.J.J.J.J.J.J.J.J.J.J.J.J.J.J.J.J.J.J.J.J.J.J.J.J.J.J.J.J.J.J.J.J.J.J.J.J.J.J.J.J.J.J.J.J.J.J.J.",
"J.J.J.J.J.J.J.J.J.J.J.J.J.J.J.J.J.J.J.J.J.J.J.J.J.J.J.J.J.J.J.J.J.J.J.J.J.J.J.J.J.J.J.J.J.J.J.J.J.J.J.J.J.J.J.J.J.J.J.J.J.J.J.J.",
"J.J.J.J.J.J.J.J.J.J.J.J.J.J.J.J.J.J.J.J.J.J.J.J.J.J.J.J.J.J.J.J.J.J.J.J.J.J.J.J.J.J.J.J.J.J.J.J.J.J.J.J.J.J.J.J.J.J.J.J.J.J.J.J.",
"J.J.J.J.J.J.J.J.J.J.J.J.J.J.J.J.J.J.J.J.J.J.J.J.J.J.J.J.J.J.J.J.J.J.J.J.J.J.J.J.J.J.J.J.J.J.J.J.J.J.J.J.J.J.J.J.J.J.J.J.J.J.J.J.",
"J.J.J.J.J.J.J.J.J.J.J.J.J.J.J.J.J.J.J.J.J.J.J.J.J.J.J.J.J.J.J.J.J.J.J.J.J.J.J.J.J.J.J.J.J.J.J.J.J.J.J.J.J.J.J.J.J.J.J.J.J.J.J.J.",
"J.J.J.J.J.J.J.J.J.J.J.J.J.J.J.J.J.J.J.J.J.J.J.J.J.J.J.J.J.J.$ $ J.J.J.J.J.J.J.J.J.J.J.J.J.J.J.J.J.J.J.J.J.J.J.J.J.J.J.J.J.J.J.J.",
"J.J.J.J.J.J.J.J.J.J.J.J.J.J.J.J.J.J.J.J.J.J.J.J.J.J.J.J.+ - 6 u u t 0 6 , J.J.J.J.J.J.J.J.J.J.J.J.J.J.J.J.J.J.J.J.J.J.J.J.J.J.J.",
"J.J.J.J.J.J.J.J.J.J.J.J.J.J.J.J.J.J.J.J.J.J.J.J.J.J.J.y N ..1.0.w.r.9.,.D n 4 + J.J.J.J.J.J.J.J.J.J.J.J.J.J.J.J.J.J.J.J.J.J.J.J.",
"J.J.J.J.J.J.J.J.J.J.J.J.J.J.J.J.J.J.J.J.J.J.J.J.J.y C 1.s.s.s.s.s.z.s.d.z.a.,.M 4 J.J.J.J.J.J.J.J.J.J.J.J.J.J.J.J.J.J.J.J.J.J.J.",
"J.J.J.J.J.J.J.J.J.J.J.J.J.J.J.J.J.J.J.J.J.J.J.J.t >.z.g.f.g.d.d.s.a.z.s.s.z.z.a.G 6 O J.J.J.J.J.J.J.J.J.J.J.J.J.J.J.J.J.J.J.J.J.",
"J.J.J.J.J.J.J.J.J.J.J.J.J.J.J.J.J.J.J.J.J.J.J.6 ,.s.z.a.z.z.z.s.s.F.H.s.f.g.s.s.f.<.q J.J.J.J.J.J.J.J.J.J.J.J.J.J.J.J.J.J.J.J.J.",
"J.J.J.J.J.J.J.J.J.J.J.J.J.J.J.J.J.J.O % = - r G g.s.d.s.d.s.s.z.s.s.s.s.s.s.f.f.f.H.a.m + J.J.J.J.J.J.J.J.J.J.J.J.J.J.J.J.J.J.J.",
"J.J.J.J.J.J.J.J.J.J.J.J.J.J.# - 5 8 i h k z S 0.s.z.f.s.s.s.s.s.s.s.s.z.s.d.s.s.z.s.G.0.n J.J.J.J.J.J.J.J.J.J.J.J.J.J.J.J.J.J.J.",
"J.J.J.J.J.J.J.J.J.J.J.$ ; 9 h c H P I W W ! { w.s.s.s.s.s.s.z.s.s.s.s.s.z.s.s.s.s.s.s.s.,.e J.J.J.J.J.J.J.J.J.J.J.J.J.J.J.J.J.J.",
"J.J.J.J.J.J.J.J.$ O ; s Z U ] %.o.T ^ R _ Q ~ 5.s.s.s.s.f.s.s.s.s.z.s.s.s.f.s.s.s.s.f.s.a.D J.J.J.J.J.J.J.J.J.J.J.J.J.J.J.J.J.J.",
"J.J.J.J.J.J.J.  % i H _ `  .B.C.h.` W W _ Q U ~ w.s.F.s.s.s.s.s.s.s.s.s.s.s.s.s.s.s.s.s.z.>.6 J.J.J.J.J.J.J.J.J.J.J.J.J.J.J.J.J.",
"J.J.J.J.J.J.F & j Q ` R _ -.m.b.v.[ W ! Q W ! ` 3.s.F.s.s.s.s.s.s.s.s.s.s.s.s.s.s.s.f.s.s.9.t J.J.J.J.J.J.J.J.J.J.J.J.J.J.J.J.J.",
"J.J.J.J.J.J.b s T R R Q W %.N.n.j.[ W ! ! ! Y W ! 3.t.s.s.s.s.s.s.s.s.f.s.s.s.s.s.z.f.s.s.s.u J.J.J.J.J.J.J.J.J.J.J.J.J.J.J.J.J.",
"J.J.J.J.J.J.1 c R R _ Q R ! %.*.[ R T Q R R R R ` W 2.q.s.f.f.f.s.s.s.s.g.s.s.s.a.z.s.s.s.s.m O J.J.J.J.J.J.J.J.J.J.J.J.J.J.J.J.",
"J.J.J.J.J.J.J.j ` R ` R R Q ` ! Y R Q R Y ` ! Q R R W ~ 3.w.f.s.d.s.s.s.s.s.s.s.s.s.d.s.z.e.M . J.J.J.J.J.J.J.J.J.J.J.J.J.J.J.J.",
"J.J.J.J.J.J.J.5 L ! T Q ! Y ! ` W ! ! Y | #./ W Q R ` Y Y ] 4.e.z.H.g.s.s.s.s.g.z.z.a.z.e.2.Q k > J.J.J.J.J.J.J.J.J.J.J.J.J.J.J.",
"J.J.J.J.J.J.J.* s U ` W ! ! R Q W ` W @.B.D.x.[ Y W Y Y W / R ` | 7.q.t.s.F.f.s.s.s.e.6.} Y ` ` Z 5 J.J.J.J.J.J.J.J.J.J.J.J.J.J.",
"J.J.J.J.J.J.J.J.= f T ^ W Q R R ! Q R *.m.S.v.@.! Y R Q W W R W W ! } } 2.3.4.4.3.O.` Q Y ! ! ! W A i J.J.J.J.J.J.J.J.J.J.J.J.J.",
"J.J.J.J.J.J.J.J.J.& f L ! W R W Q _ Y o.j.m.p.] Q R T W W _ Y ! ` ! ! Y T Q R ! ! W ! R ` W Y R Q ! H i + J.J.J.J.J.J.J.J.J.J.J.",
"J.J.J.J.J.J.J.J.J.O + q H ` ` Y ! R R ` [ @.' / _ ! W ' *.*.( ! ! Y ! ! ` ! / W ! ! ! ! ! W ^ Y Y Q ! J w X J.J.J.J.J.J.J.J.J.J.",
"J.J.J.J.J.J.J.J.J.J.O . < z W ` ! R R ! R Q Q Q ! ! I ;.Z.n.;.W ! ! R ! Y I Y Y Y Q ^ T R Y T &.p.*.R ` U 7 . J.J.J.J.J.J.J.J.J.",
"J.J.J.J.J.J.J.J.J.J.J.J.$ = p J Y ! R W R W W Q ! W / h.S.M.j.Y Q ` W ! Y ] 3.[ R ! Q ! ! Y @.c.S.c.%.Q ^ J 4 J.J.J.J.J.J.J.J.J.",
"J.J.J.J.J.J.J.J.J.J.J.J.O X + 5 x P ! ` ! W ` _ W ! Y =.B.B.y.E ! _ W ! / j.C.x. .Y ` Y R W @.n.m.Z.$.R Q ! x < J.J.J.J.J.J.J.J.",
"J.J.J.J.J.J.J.J.J.J.J.J.J.J.J.X & 0 z K W _ Y Q ! ! Q ! | o./ Q ! ! ! Y @.Z.M.C.*.Y ` Y ! Q ` u.x.i.[ Y W ` T s + J.J.J.J.J.J.J.",
"J.J.J.J.J.J.J.J.J.J.J.J.J.J.J.J.J.O = r x U ` ~ ^ ! W ! W ! R ! Y ! W R ( h.V.l.o.Y ! R W Y R / [ ] R ! R ` R A 7 J.J.J.J.J.J.J.",
"J.J.J.J.J.J.J.J.J.J.J.J.J.J.J.J.J.J.J.+ # 2 j K U ` / Y R W ^ ! Y ! ^ ! R ) #.) R Q R W ! ! ! ! R W Y Q Y W ! W j o J.J.J.J.J.J.",
"J.J.J.J.J.J.J.J.J.J.J.J.J.J.J.J.J.J.J.J.J.O % : f H Y ' ` ! W Y Q W ! W ^ U W Y ^ W ` R Y R ! R Y ` ` _ ` W ! ' H * J.J.J.J.J.J.",
"J.J.J.J.J.J.J.J.J.J.J.J.J.J.J.J.J.J.J.J.J.J.J.J.O = q k A U Y ! ` ! ! Y W ^ W W Q W ` R ! W ! ! Q R R Y ! R ! ! K - J.J.J.J.J.J.",
"J.J.J.J.J.J.J.J.J.J.J.J.J.J.J.J.J.J.J.J.J.J.J.J.J.O O + : r j V H U Y ` W ` ` ! R ` W R R ` W Y ` W Q R ` Q ! U x 4 J.J.J.J.J.J.",
"J.J.J.J.J.J.J.J.J.J.J.J.J.J.J.J.J.J.J.J.J.J.J.J.J.J.J.J.O $ + = 2 q s z V A L U R Q ! Q R ! ` ` Q W Q U H A l i 2 J.J.J.J.J.J.J.",
"J.J.J.J.J.J.J.J.J.J.J.J.J.J.J.J.J.J.J.J.J.J.J.J.J.J.J.J.J.J.J.J.J.O % # = ; 3 8 q p s j k k f f h s q 5 1 = & J.J.J.J.J.J.J.J.J.",
"J.J.J.J.J.J.J.J.J.J.J.J.J.J.J.J.J.J.J.J.J.J.J.J.J.J.J.J.J.J.J.J.J.J.J.J.J.J.    O O O     . @ O O O $ O J.O J.J.J.J.J.J.J.J.J.J.",
"J.J.J.J.J.J.J.J.J.J.J.J.J.J.J.J.J.J.J.J.J.J.J.J.J.J.J.J.J.J.J.J.J.J.J.J.J.J.J.J.J.J.J.J.J.J.J.J.J.J.J.J.J.J.J.J.J.J.J.J.J.J.J.J.",
"J.J.J.J.J.J.J.J.J.J.J.J.J.J.J.J.J.J.J.J.J.J.J.J.J.J.J.J.J.J.J.J.J.J.J.J.J.J.J.J.J.J.J.J.J.J.J.J.J.J.J.J.J.J.J.J.J.J.J.J.J.J.J.J.",
"J.J.J.J.J.J.J.J.J.J.J.J.J.J.J.J.J.J.J.J.J.J.J.J.J.J.J.J.J.J.J.J.J.J.J.J.J.J.J.J.J.J.J.J.J.J.J.J.J.J.J.J.J.J.J.J.J.J.J.J.J.J.J.J.",
"J.J.J.J.J.J.J.J.J.J.J.J.J.J.J.J.J.J.J.J.J.J.J.J.J.J.J.J.J.J.J.J.J.J.J.J.J.J.J.J.J.J.J.J.J.J.J.J.J.J.J.J.J.J.J.J.J.J.J.J.J.J.J.J.",
"J.J.J.J.J.J.J.J.J.J.J.J.J.J.J.J.J.J.J.J.J.J.J.J.J.J.J.J.J.J.J.J.J.J.J.J.J.J.J.J.J.J.J.J.J.J.J.J.J.J.J.J.J.J.J.J.J.J.J.J.J.J.J.J.",
"J.J.J.J.J.J.J.J.J.J.J.J.J.J.J.J.J.J.J.J.J.J.J.J.J.J.J.J.J.J.J.J.J.J.J.J.J.J.J.J.J.J.J.J.J.J.J.J.J.J.J.J.J.J.J.J.J.J.J.J.J.J.J.J.",
"J.J.J.J.J.J.J.J.J.J.J.J.J.J.J.J.J.J.J.J.J.J.J.J.J.J.J.J.J.J.J.J.J.J.J.J.J.J.J.J.J.J.J.J.J.J.J.J.J.J.J.J.J.J.J.J.J.J.J.J.J.J.J.J.",
"J.J.J.J.J.J.J.J.J.J.J.J.J.J.J.J.J.J.J.J.J.J.J.J.J.J.J.J.J.J.J.J.J.J.J.J.J.J.J.J.J.J.J.J.J.J.J.J.J.J.J.J.J.J.J.J.J.J.J.J.J.J.J.J.",
"J.J.J.J.J.J.J.J.J.J.J.J.J.J.J.J.J.J.J.J.J.J.J.J.J.J.J.J.J.J.J.J.J.J.J.J.J.J.J.J.J.J.J.J.J.J.J.J.J.J.J.J.J.J.J.J.J.J.J.J.J.J.J.J.",
"J.J.J.J.J.J.J.J.J.J.J.J.J.J.J.J.J.J.J.J.J.J.J.J.J.J.J.J.J.J.J.J.J.J.J.J.J.J.J.J.J.J.J.J.J.J.J.J.J.J.J.J.J.J.J.J.J.J.J.J.J.J.J.J.",
"J.J.J.J.J.J.J.J.J.J.J.J.J.J.J.J.J.J.J.J.J.J.J.J.J.J.J.J.J.J.J.J.J.J.J.J.J.J.J.J.J.J.J.J.J.J.J.J.J.J.J.J.J.J.J.J.J.J.J.J.J.J.J.J.",
"J.J.J.J.J.J.J.J.J.J.J.J.J.J.J.J.J.J.J.J.J.J.J.J.J.J.J.J.J.J.J.J.J.J.J.J.J.J.J.J.J.J.J.J.J.J.J.J.J.J.J.J.J.J.J.J.J.J.J.J.J.J.J.J.",
"J.J.J.J.J.J.J.J.J.J.J.J.J.J.J.J.J.J.J.J.J.J.J.J.J.J.J.J.J.J.J.J.J.J.J.J.J.J.J.J.J.J.J.J.J.J.J.J.J.J.J.J.J.J.J.J.J.J.J.J.J.J.J.J.",
"J.J.J.J.J.J.J.J.J.J.J.J.J.J.J.J.J.J.J.J.J.J.J.J.J.J.J.J.J.J.J.J.J.J.J.J.J.J.J.J.J.J.J.J.J.J.J.J.J.J.J.J.J.J.J.J.J.J.J.J.J.J.J.J.",
"J.J.J.J.J.J.J.J.J.J.J.J.J.J.J.J.J.J.J.J.J.J.J.J.J.J.J.J.J.J.J.J.J.J.J.J.J.J.J.J.J.J.J.J.J.J.J.J.J.J.J.J.J.J.J.J.J.J.J.J.J.J.J.J.",
"J.J.J.J.J.J.J.J.J.J.J.J.J.J.J.J.J.J.J.J.J.J.J.J.J.J.J.J.J.J.J.J.J.J.J.J.J.J.J.J.J.J.J.J.J.J.J.J.J.J.J.J.J.J.J.J.J.J.J.J.J.J.J.J.",
"J.J.J.J.J.J.J.J.J.J.J.J.J.J.J.J.J.J.J.J.J.J.J.J.J.J.J.J.J.J.J.J.J.J.J.J.J.J.J.J.J.J.J.J.J.J.J.J.J.J.J.J.J.J.J.J.J.J.J.J.J.J.J.J.",
"J.J.J.J.J.J.J.J.J.J.J.J.J.J.J.J.J.J.J.J.J.J.J.J.J.J.J.J.J.J.J.J.J.J.J.J.J.J.J.J.J.J.J.J.J.J.J.J.J.J.J.J.J.J.J.J.J.J.J.J.J.J.J.J.",
"J.J.J.J.J.J.J.J.J.J.J.J.J.J.J.J.J.J.J.J.J.J.J.J.J.J.J.J.J.J.J.J.J.J.J.J.J.J.J.J.J.J.J.J.J.J.J.J.J.J.J.J.J.J.J.J.J.J.J.J.J.J.J.J.",
"J.J.J.J.J.J.J.J.J.J.J.J.J.J.J.J.J.J.J.J.J.J.J.J.J.J.J.J.J.J.J.J.J.J.J.J.J.J.J.J.J.J.J.J.J.J.J.J.J.J.J.J.J.J.J.J.J.J.J.J.J.J.J.J.",
"J.J.J.J.J.J.J.J.J.J.J.J.J.J.J.J.J.J.J.J.J.J.J.J.J.J.J.J.J.J.J.J.J.J.J.J.J.J.J.J.J.J.J.J.J.J.J.J.J.J.J.J.J.J.J.J.J.J.J.J.J.J.J.J."
};
