/* XPM */
static char *result[] = {
/* columns rows colors chars-per-pixel */
"64 64 158 2 ",
"   c #020C1C",
".  c #03131E",
"X  c #020E22",
"o  c #0F0B21",
"O  c #031324",
"+  c #0D1625",
"@  c #051824",
"#  c #0D1824",
"$  c #041629",
"%  c #0B162A",
"&  c #131427",
"*  c #13152B",
"=  c #131A2C",
"-  c #1C192D",
";  c #1C1D31",
":  c #211E33",
">  c #16202C",
",  c #1E202F",
"<  c #192232",
"1  c #1F2439",
"2  c #222235",
"3  c #282336",
"4  c #222638",
"5  c #2C233A",
"6  c #2C293B",
"7  c #302137",
"8  c #33273C",
"9  c #3E243E",
"0  c #332A3E",
"q  c #3A283D",
"w  c #41283F",
"e  c #352C41",
"r  c #3B2B40",
"t  c #353145",
"y  c #3B3346",
"u  c #3C354C",
"i  c #422D44",
"p  c #463047",
"a  c #483247",
"s  c #4C314A",
"d  c #403A4E",
"f  c #54344E",
"g  c #483F53",
"h  c #563250",
"j  c #5A3651",
"k  c #5D3A55",
"l  c #613552",
"z  c #633B56",
"x  c #663D5A",
"c  c #6D3D5B",
"v  c #733F5C",
"b  c #364252",
"n  c #4C4155",
"m  c #514257",
"M  c #5E455B",
"N  c #5A4A5E",
"B  c #60495E",
"V  c #72405D",
"C  c #684F66",
"Z  c #754462",
"A  c #7C4563",
"S  c #764A66",
"D  c #73596F",
"F  c #7D6176",
"G  c #834665",
"H  c #844965",
"J  c #894769",
"K  c #874A6A",
"L  c #8C4B6B",
"P  c #964C65",
"I  c #934C6C",
"U  c #9B4E6D",
"Y  c #96516F",
"T  c #9B516E",
"R  c #944D70",
"E  c #9C4F72",
"W  c #965272",
"Q  c #9C5172",
"!  c #9F5875",
"~  c #9D5379",
"^  c #A3556C",
"/  c #A55A6B",
"(  c #A95B6D",
")  c #A24E72",
"_  c #A25374",
"`  c #A85674",
"'  c #A35A74",
"]  c #AA5C74",
"[  c #A25779",
"{  c #A25D7A",
"}  c #AE5F7A",
"|  c #B45F75",
" . c #87637A",
".. c #8E687F",
"X. c #AE6175",
"o. c #A6617F",
"O. c #AF647E",
"+. c #B26375",
"@. c #BB6776",
"#. c #BC6A75",
"$. c #B2647A",
"%. c #B26A7E",
"&. c #BB6B7B",
"*. c #BC707E",
"=. c #C26F7D",
"-. c #C6757E",
";. c #A75D80",
":. c #8E6782",
">. c #926D84",
",. c #9D6F89",
"<. c #9D758D",
"1. c #A66482",
"2. c #AA6684",
"3. c #AA6884",
"4. c #AF6F89",
"5. c #B16D88",
"6. c #B0708A",
"7. c #AB7794",
"8. c #A57992",
"9. c #AD7C96",
"0. c #B57792",
"q. c #B57995",
"w. c #BB7C96",
"e. c #B47F99",
"r. c #B87C98",
"t. c #C07084",
"y. c #C87781",
"u. c #CE7F85",
"i. c #D17C85",
"p. c #B5849C",
"a. c #BD859E",
"s. c #BA889E",
"d. c #BE86A0",
"f. c #BE88A1",
"g. c #D68686",
"h. c #DB8386",
"j. c #DC868B",
"k. c #D98889",
"l. c #C1849E",
"z. c #E38C8C",
"x. c #EB948C",
"c. c #EF998F",
"v. c #FE9F87",
"b. c #F2968D",
"n. c #F39B8D",
"m. c #FC9D8D",
"M. c #E18E90",
"N. c #E49190",
"B. c #EF9A95",
"V. c #F09791",
"C. c #F19A92",
"Z. c #F7A08B",
"A. c #FDA28D",
"S. c #FDA393",
"D. c #C286A1",
"F. c #C887A3",
"G. c #C289A2",
"H. c None",
/* pixels */
"H.H.H.H.H.H.H.H.H.H.H.H.H.H.H.H.H.H.H.H.H.H.H.H.H.H.H.H.H.H.H.H.H.H.H.H.H.H.H.H.H.H.H.H.H.H.H.H.H.H.H.H.H.H.H.H.H.H.H.H.H.H.H.H.",
"H.H.H.H.H.H.H.H.H.H.H.H.H.H.H.H.H.H.H.H.H.H.H.H.H.H.H.H.H.H.H.H.H.H.H.H.H.H.H.H.H.H.H.H.H.H.H.H.H.H.H.H.H.H.H.H.H.H.H.H.H.H.H.H.",
"H.H.H.H.H.H.H.H.H.H.H.H.H.H.H.H.H.H.H.H.H.H.H.H.H.H.H.H.H.H.H.H.H.H.H.H.H.H.H.H.H.H.H.H.H.H.H.H.H.H.H.H.H.H.H.H.H.H.H.H.H.H.H.H.",
"H.H.H.H.H.H.H.H.H.H.H.H.H.H.H.H.H.H.H.H.H.H.H.H.H.H.H.H.H.H.H.H.H.H.H.H.H.H.H.H.H.H.H.H.H.H.H.H.H.H.H.H.H.H.H.H.H.H.H.H.H.H.H.H.",
"H.H.H.H.H.H.H.H.H.H.H.H.H.H.H.H.H.H.H.H.H.H.H.H.H.H.H.H.H.H.H.H.H.H.H.H.H.H.H.H.H.H.H.H.H.H.H.H.H.H.H.H.H.H.H.H.H.H.H.H.H.H.H.H.",
"H.H.H.H.H.H.H.H.H.H.H.H.H.H.H.H.H.H.H.H.H.H.H.H.H.H.H.H.H.H.H.H.H.H.H.H.H.H.H.H.H.H.H.H.H.H.H.H.H.H.H.H.H.H.H.H.H.H.H.H.H.H.H.H.",
"H.H.H.H.H.H.H.H.H.H.H.H.H.H.H.H.H.H.H.H.H.H.H.H.H.H.H.H.H.H.H.H.H.H.H.H.H.H.H.H.H.H.H.H.H.H.H.H.H.H.H.H.H.H.H.H.H.H.H.H.H.H.H.H.",
"H.H.H.H.H.H.H.H.H.H.H.H.H.H.H.H.H.H.H.H.H.H.H.H.H.H.H.H.H.H.H.H.H.H.H.H.H.H.H.H.H.H.H.H.H.H.H.H.H.H.H.H.H.H.H.H.H.H.H.H.H.H.H.H.",
"H.H.H.H.H.H.H.H.H.H.H.H.H.H.H.H.H.H.H.H.H.H.H.H.H.H.H.H.H.H.H.H.H.H.H.H.H.H.H.H.H.H.H.H.H.H.H.H.H.H.H.H.H.H.H.H.H.H.H.H.H.H.H.H.",
"H.H.H.H.H.H.H.H.H.H.H.H.H.H.H.H.H.H.H.H.H.H.H.H.H.H.H.H.H.H.H.H.H.H.H.H.H.H.H.H.H.H.H.H.H.H.H.H.H.H.H.H.H.H.H.H.H.H.H.H.H.H.H.H.",
"H.H.H.H.H.H.H.H.H.H.H.H.H.H.H.H.H.H.H.H.H.H.H.H.H.H.H.H.H.H.H.H.H.H.H.H.H.H.H.H.H.H.H.H.H.H.H.H.H.H.H.H.H.H.H.H.H.H.H.H.H.H.H.H.",
"H.H.H.H.H.H.H.H.H.H.H.H.H.H.H.H.H.H.H.H.H.H.H.H.H.H.H.H.H.H.H.H.@ $ H.H.H.H.H.H.H.H.H.H.H.H.H.H.H.H.H.H.H.H.H.H.H.H.H.H.H.H.H.H.",
"H.H.H.H.H.H.H.H.H.H.H.H.H.H.H.H.H.H.H.H.H.H.H.H.H.H.H.2 0 0 t u u 6 ; # H.H.H.H.H.H.H.H.H.H.H.H.H.H.H.H.H.H.H.H.H.H.H.H.H.H.H.H.",
"H.H.H.H.H.H.H.H.H.H.H.H.H.H.H.H.H.H.H.H.H.H.H.H.@ 4 n D ..8.9.q.7.<. .B y H.H.H.H.H.H.H.H.H.H.H.H.H.H.H.H.H.H.H.H.H.H.H.H.H.H.H.",
"H.H.H.H.H.H.H.H.H.H.H.H.H.H.H.H.H.H.H.H.H.H.H.2 M >.p.d.s.a.D.l.d.d.p.p.<.C y H.H.H.H.H.H.H.H.H.H.H.H.H.H.H.H.H.H.H.H.H.H.H.H.H.",
"H.H.H.H.H.H.H.H.H.H.H.H.H.H.H.H.H.H.H.H.H.@ 6 F p.l.l.a.a.a.a.s.d.d.d.d.f.D.:.t H.H.H.H.H.H.H.H.H.H.H.H.H.H.H.H.H.H.H.H.H.H.H.H.",
"H.H.H.H.H.H.H.H.H.H.H.H.H.H.H.H.H.H.H.H.H.r ,.d.a.a.D.d.a.D.D.a.a.l.l.a.a.l.a.>.6 H.H.H.H.H.H.H.H.H.H.H.H.H.H.H.H.H.H.H.H.H.H.H.",
"H.H.H.H.H.H.H.H.H.H.H.H.H.H.H.H.H.H.H.+ m e.F.d.l.s.s.a.a.a.a.a.l.a.a.s.a.s.a.s.F r ; * % $ H.H.H.H.H.H.H.H.H.H.H.H.H.H.H.H.H.H.",
"H.H.H.H.H.H.H.H.H.H.H.H.H.H.H.H.H.H.H.n 7.G.a.a.l.s.a.f.a.a.D.a.a.a.a.a.a.a.l.l.9.S z k h i 8 : - # H.H.H.H.H.H.H.H.H.H.H.H.H.H.",
"H.H.H.H.H.H.H.H.H.H.H.H.H.H.H.H.H.H.e >.d.a.a.a.a.a.a.l.a.a.a.a.a.a.a.a.a.a.l.a.q.[ _ E T I I G c f 9 : @ H.H.H.H.H.H.H.H.H.H.H.",
"H.H.H.H.H.H.H.H.H.H.H.H.H.H.H.H.H.H.D p.a.d.a.a.a.a.a.a.a.a.a.a.a.a.a.a.a.p.a.l.5.~ Y T Q ~ Y / $.' I Z s : O $ H.H.H.H.H.H.H.H.",
"H.H.H.H.H.H.H.H.H.H.H.H.H.H.H.H.H.3 ..l.a.d.a.a.a.l.a.a.a.a.a.a.a.a.a.a.l.D.a.r.! W T ) E E ' h.V.z.+._ ) G y %   H.H.H.H.H.H.H.",
"H.H.H.H.H.H.H.H.H.H.H.H.H.H.H.H.H.t 8.D.l.d.a.a.a.a.a.a.a.a.a.a.s.a.a.a.a.D.p.2.~ Q Q T Q R X.C.v.n.=.) E Q W j & H.H.H.H.H.H.H.",
"H.H.H.H.H.H.H.H.H.H.H.H.H.H.H.H.H.u p.a.l.a.a.a.s.l.a.a.a.a.a.a.l.a.a.l.a.r.2._ U U Q Q Q E ] h.V.M.$.T Q Q Q I s b H.H.H.H.H.H.",
"H.H.H.H.H.H.H.H.H.H.H.H.H.H.H.H.@ m w.a.s.a.l.a.a.a.a.a.a.a.a.a.a.d.d.a.6.1.E E T Q U T Q T I ] @.+.! T E ) T T v 1 H.H.H.H.H.H.",
"H.H.H.H.H.H.H.H.H.H.H.H.H.H.H.H.. B r.l.a.s.a.a.a.a.a.a.a.a.s.a.a.d.q.2.[ Q T Q Q ~ T T Y Q Q U E ~ T T W _ T Q j H.H.H.H.H.H.H.",
"H.H.H.H.H.H.H.H.H.H.H.H.H.H.H.> k W 2.w.l.p.a.l.d.a.a.a.a.D.f.D.r.3.' T U ~ T T Q ^ @.X.T Q Q U _ E U Q E Y ! K 5 H.H.H.H.H.H.H.",
"H.H.H.H.H.H.H.H.H.H.H.H.H.H.5 Z _ ) Q { 5.w.a.p.a.d.a.a.r.q.6.} _ T T _ U T Q T ] z.S.x.X.Q _ E Q Q T Q ~ T I s % H.H.H.H.H.H.H.",
"H.H.H.H.H.H.H.H.H.H.H.H.H.i A R Q Q Q T Q ! o.2.3.3.2.o.o.{ Q E E ^ E ~ Q T U T +.c.A.n.&.T Q Q T T T E ~ I f * H.H.H.H.H.H.H.H.",
"H.H.H.H.H.H.H.H.H.H.H.+ r G Q T T Q U Q U E Q E Q Q T T T T E _ T U U T E Y T Q ' i.b.h.X.T Q Q W Q E ~ K f * H.H.H.H.H.H.H.H.H.",
"H.H.H.H.H.H.H.H.H.H.O w H _ Q U Q Q Q Q Q ~ ~ U T T T _ Q T E E E ^ &.&._ U Q E E ` +.] Q Q T Q E _ Q G q # O H.H.H.H.H.H.H.H.H.",
"H.H.H.H.H.H.H.H.H.. 7 I _ T &.u.%.Y R Q U Q Q T U U U U T Q Q ~ E -.b.C.-.P ~ Q Q W W Y Q T T T _ U z 2 . O H.H.H.H.H.H.H.H.H.H.",
"H.H.H.H.H.H.H.H.H.3 A ~ W +.x.S.x.| Q Q Q Q Q ^ ] O.' U E ) ! T U j.m.A.g.T ~ Q Q E E U Q T Q E H s = $ H.H.H.H.H.H.H.H.H.H.H.H.",
"H.H.H.H.H.H.H.H.< x _ Q Q #.B.A.n.| U U U Q U ] j.B.h.^ ~ E U Q I t.N.N.&.T Q E Q Q Q Q Q Q L x 5 + X O H.H.H.H.H.H.H.H.H.H.H.H.",
"H.H.H.H.H.H.H.& s R _ Q T ( u.j.-.! Q Q U Q T @.B.A.B.+.U E Q T E ^ X.} Q Q T Q Q Q ) E J z 8 * X H.H.H.H.H.H.H.H.H.H.H.H.H.H.H.",
"H.H.H.H.H.H.H.7 A ! U Y Q Q ` ] T U U Q Q Q T ] k.c.g./ T E Q U Q T Q E Q T Q ~ _ _ I x r = O H.H.H.H.H.H.H.H.H.H.H.H.H.H.H.H.H.",
"H.H.H.H.H.H.o j E U E U Q T E T ! Q Q Q E T Q T ( @.( T ~ E Q U T ~ Q T T T _ E J j 2 # @ H.H.H.H.H.H.H.H.H.H.H.H.H.H.H.H.H.H.H.",
"H.H.H.H.H.H.* A _ ! Q _ ) ) _ U U T T E T _ ~ ~ E U I ~ E ~ E Q U E Q _ ` U G f : % O H.H.H.H.H.H.H.H.H.H.H.H.H.H.H.H.H.H.H.H.H.",
"H.H.H.H.H.H.- K ! T E Q U T Q W ! Q E T U Q E Q ~ E E ~ U Q Q ~ ) E I A k 0 - O H.H.H.H.H.H.H.H.H.H.H.H.H.H.H.H.H.H.H.H.H.H.H.H.",
"H.H.H.H.H.H.4 x I ~ I ! T Q W Q U U Q _ U Q ~ T E Q _ ) ^ U L G V j r ; + O O H.H.H.H.H.H.H.H.H.H.H.H.H.H.H.H.H.H.H.H.H.H.H.H.H.",
"H.H.H.H.H.H.H.2 i l Z G I W Q Q ) _ _ T Q ~ Q I I H A V z s 8 3 = + $ O H.H.H.H.H.H.H.H.H.H.H.H.H.H.H.H.H.H.H.H.H.H.H.H.H.H.H.H.",
"H.H.H.H.H.H.H.H.H.* - 1 5 q p f f f j j f s i r 8 3 ; = + # @ H.H.H.H.H.H.H.H.H.H.H.H.H.H.H.H.H.H.H.H.H.H.H.H.H.H.H.H.H.H.H.H.H.",
"H.H.H.H.H.H.H.H.H.H.H.H.O $ O O O $ . .   @ @ O     H.H.H.H.H.H.H.H.H.H.H.H.H.H.H.H.H.H.H.H.H.H.H.H.H.H.H.H.H.H.H.H.H.H.H.H.H.H.",
"H.H.H.H.H.H.H.H.H.H.H.H.H.H.H.H.H.H.H.H.H.H.H.H.H.H.H.H.H.H.H.H.H.H.H.H.H.H.H.H.H.H.H.H.H.H.H.H.H.H.H.H.H.H.H.H.H.H.H.H.H.H.H.H.",
"H.H.H.H.H.H.H.H.H.H.H.H.H.H.H.H.H.H.H.H.H.H.H.H.H.H.H.H.H.H.H.H.H.H.H.H.H.H.H.H.H.H.H.H.H.H.H.H.H.H.H.H.H.H.H.H.H.H.H.H.H.H.H.H.",
"H.H.H.H.H.H.H.H.H.H.H.H.H.H.H.H.H.H.H.H.H.H.H.H.H.H.H.H.H.H.H.H.H.H.H.H.H.H.H.H.H.H.H.H.H.H.H.H.H.H.H.H.H.H.H.H.H.H.H.H.H.H.H.H.",
"H.H.H.H.H.H.H.H.H.H.H.H.H.H.H.H.H.H.H.H.H.H.H.H.H.H.H.H.H.H.H.H.H.H.H.H.H.H.H.H.H.H.H.H.H.H.H.H.H.H.H.H.H.H.H.H.H.H.H.H.H.H.H.H.",
"H.H.H.H.H.H.H.H.H.H.H.H.H.H.H.H.H.H.H.H.H.H.H.H.H.H.H.H.H.H.H.H.H.H.H.H.H.H.H.H.H.H.H.H.H.H.H.H.H.H.H.H.H.H.H.H.H.H.H.H.H.H.H.H.",
"H.H.H.H.H.H.H.H.H.H.H.H.H.H.H.H.H.H.H.H.H.H.H.H.H.H.H.H.H.H.H.H.H.H.H.H.H.H.H.H.H.H.H.H.H.H.H.H.H.H.H.H.H.H.H.H.H.H.H.H.H.H.H.H.",
"H.H.H.H.H.H.H.H.H.H.H.H.H.H.H.H.H.H.H.H.H.H.H.H.H.H.H.H.H.H.H.H.H.H.H.H.H.H.H.H.H.H.H.H.H.H.H.H.H.H.H.H.H.H.H.H.H.H.H.H.H.H.H.H.",
"H.H.H.H.H.H.H.H.H.H.H.H.H.H.H.H.H.H.H.H.H.H.H.H.H.H.H.H.H.H.H.H.H.H.H.H.H.H.H.H.H.H.H.H.H.H.H.H.H.H.H.H.H.H.H.H.H.H.H.H.H.H.H.H.",
"H.H.H.H.H.H.H.H.H.H.H.H.H.H.H.H.H.H.H.H.H.H.H.H.H.H.H.H.H.H.H.H.H.H.H.H.H.H.H.H.H.H.H.H.H.H.H.H.H.H.H.H.H.H.H.H.H.H.H.H.H.H.H.H.",
"H.H.H.H.H.H.H.H.H.H.H.H.H.H.H.H.H.H.H.H.H.H.H.H.H.H.H.H.H.H.H.H.H.H.H.H.H.H.H.H.H.H.H.H.H.H.H.H.H.H.H.H.H.H.H.H.H.H.H.H.H.H.H.H.",
"H.H.H.H.H.H.H.H.H.H.H.H.H.H.H.H.H.H.H.H.H.H.H.H.H.H.H.H.H.H.H.H.H.H.H.H.H.H.H.H.H.H.H.H.H.H.H.H.H.H.H.H.H.H.H.H.H.H.H.H.H.H.H.H.",
"H.H.H.H.H.H.H.H.H.H.H.H.H.H.H.H.H.H.H.H.H.H.H.H.H.H.H.H.H.H.H.H.H.H.H.H.H.H.H.H.H.H.H.H.H.H.H.H.H.H.H.H.H.H.H.H.H.H.H.H.H.H.H.H.",
"H.H.H.H.H.H.H.H.H.H.H.H.H.H.H.H.H.H.H.H.H.H.H.H.H.H.H.H.H.H.H.H.H.H.H.H.H.H.H.H.H.H.H.H.H.H.H.H.H.H.H.H.H.H.H.H.H.H.H.H.H.H.H.H.",
"H.H.H.H.H.H.H.H.H.H.H.H.H.H.H.H.H.H.H.H.H.H.H.H.H.H.H.H.H.H.H.H.H.H.H.H.H.H.H.H.H.H.H.H.H.H.H.H.H.H.H.H.H.H.H.H.H.H.H.H.H.H.H.H.",
"H.H.H.H.H.H.H.H.H.H.H.H.H.H.H.H.H.H.H.H.H.H.H.H.H.H.H.H.H.H.H.H.H.H.H.H.H.H.H.H.H.H.H.H.H.H.H.H.H.H.H.H.H.H.H.H.H.H.H.H.H.H.H.H.",
"H.H.H.H.H.H.H.H.H.H.H.H.H.H.H.H.H.H.H.H.H.H.H.H.H.H.H.H.H.H.H.H.H.H.H.H.H.H.H.H.H.H.H.H.H.H.H.H.H.H.H.H.H.H.H.H.H.H.H.H.H.H.H.H.",
"H.H.H.H.H.H.H.H.H.H.H.H.H.H.H.H.H.H.H.H.H.H.H.H.H.H.H.H.H.H.H.H.H.H.H.H.H.H.H.H.H.H.H.H.H.H.H.H.H.H.H.H.H.H.H.H.H.H.H.H.H.H.H.H.",
"H.H.H.H.H.H.H.H.H.H.H.H.H.H.H.H.H.H.H.H.H.H.H.H.H.H.H.H.H.H.H.H.H.H.H.H.H.H.H.H.H.H.H.H.H.H.H.H.H.H.H.H.H.H.H.H.H.H.H.H.H.H.H.H.",
"H.H.H.H.H.H.H.H.H.H.H.H.H.H.H.H.H.H.H.H.H.H.H.H.H.H.H.H.H.H.H.H.H.H.H.H.H.H.H.H.H.H.H.H.H.H.H.H.H.H.H.H.H.H.H.H.H.H.H.H.H.H.H.H.",
"H.H.H.H.H.H.H.H.H.H.H.H.H.H.H.H.H.H.H.H.H.H.H.H.H.H.H.H.H.H.H.H.H.H.H.H.H.H.H.H.H.H.H.H.H.H.H.H.H.H.H.H.H.H.H.H.H.H.H.H.H.H.H.H.",
"H.H.H.H.H.H.H.H.H.H.H.H.H.H.H.H.H.H.H.H.H.H.H.H.H.H.H.H.H.H.H.H.H.H.H.H.H.H.H.H.H.H.H.H.H.H.H.H.H.H.H.H.H.H.H.H.H.H.H.H.H.H.H.H."
};
