/* XPM */
static char *result[] = {
/* columns rows colors chars-per-pixel */
"64 64 218 2 ",
"   c #000000",
".  c #0A0202",
"X  c #010903",
"o  c #0B0804",
"O  c #03030A",
"+  c #0A020A",
"@  c #010A09",
"#  c #0B0B0A",
"$  c #110204",
"%  c #180000",
"&  c #170A06",
"*  c #13120D",
"=  c #110616",
"-  c gray9",
";  c gray10",
":  c #2B1F1F",
">  c #2F2B16",
",  c #2C251D",
"<  c #252B1E",
"1  c #352215",
"2  c #3C2A15",
"3  c #33251D",
"4  c #3B241C",
"5  c #332D1C",
"6  c #3B2B1C",
"7  c #372916",
"8  c #323115",
"9  c #3B1D25",
"0  c #371D26",
"q  c #242423",
"w  c #2E2522",
"e  c #2B2B24",
"r  c #2E2828",
"t  c #26242D",
"y  c #342424",
"u  c #3A2524",
"i  c #342B23",
"p  c #3A2A24",
"a  c #34242A",
"s  c #3C252B",
"d  c #342C2A",
"f  c #3B2C2B",
"g  c #2D342D",
"h  c #263321",
"j  c #313324",
"k  c #3A3124",
"l  c #3A322B",
"z  c #2D2C32",
"x  c #2A2732",
"c  c #342B35",
"v  c #3A2A34",
"b  c #3A2631",
"n  c #333332",
"m  c #3F3333",
"M  c #4A1E1C",
"N  c #492817",
"B  c #4B2415",
"V  c #522818",
"C  c #453118",
"Z  c #4A1720",
"A  c #441D20",
"S  c #432224",
"D  c #4A2422",
"F  c #442A24",
"G  c #4A2C25",
"H  c #43252A",
"J  c #4D242B",
"K  c #432B2B",
"L  c #4C2A28",
"P  c #522D2C",
"I  c #43302B",
"U  c #4C302D",
"Y  c #5F3E2F",
"T  c #553B2E",
"R  c #422031",
"E  c #432934",
"W  c #443A30",
"Q  c #5E3633",
"!  c #5A3B34",
"~  c #5B3E3C",
"^  c #6F3726",
"/  c #6C3E24",
"(  c #633D2C",
")  c #6C3C29",
"_  c #633327",
"`  c #633632",
"'  c #633A33",
"]  c #6C3F31",
"[  c #613238",
"{  c #633D3A",
"}  c #6B3A3C",
"|  c #6D363B",
" . c #763D3A",
".. c #763732",
"X. c #5E422A",
"o. c #584338",
"O. c #63402D",
"+. c #7D4924",
"@. c #694134",
"#. c #64413C",
"$. c #694439",
"%. c #7B4837",
"&. c #73423B",
"*. c #7D4737",
"=. c #603840",
"-. c #5A4647",
";. c #684049",
":. c #6E4943",
">. c #71424C",
",. c #8C3C1A",
"<. c #8A3C16",
"1. c #963D1C",
"2. c #9A391C",
"3. c #8D3D24",
"4. c #8B3D2D",
"5. c #863B26",
"6. c #913B24",
"7. c #9B3C24",
"8. c #953C2C",
"9. c #9B3F2A",
"0. c #8B3F3F",
"q. c #933D33",
"w. c #9C3E32",
"e. c #953E3D",
"r. c #A73F32",
"t. c #AC3C3B",
"y. c #8D4C0C",
"u. c #8D431D",
"i. c #86491D",
"p. c #8D4B1A",
"a. c #8B4715",
"s. c #91441F",
"d. c #9B441C",
"f. c #944B1D",
"g. c #994D1C",
"h. c #8B521D",
"j. c #AE421E",
"k. c #874020",
"l. c #8C4222",
"z. c #8D4C26",
"x. c #85442A",
"c. c #8D462B",
"v. c #844D2E",
"b. c #8C4C2C",
"n. c #804C25",
"m. c #944424",
"M. c #9B4323",
"N. c #944B23",
"B. c #9B4B23",
"V. c #94442B",
"C. c #9B432B",
"Z. c #94492C",
"A. c #9A4B2C",
"S. c #885325",
"D. c #93532F",
"F. c #9A522D",
"G. c #945127",
"H. c #8B4434",
"J. c #8C4D32",
"K. c #8D4838",
"L. c #844737",
"P. c #934533",
"I. c #9D4533",
"U. c #944A33",
"Y. c #9B4B32",
"T. c #934439",
"R. c #9C4339",
"E. c #934C3D",
"W. c #9A4B3A",
"Q. c #825631",
"!. c #985336",
"~. c #A24624",
"^. c #A4452B",
"/. c #A14E2A",
"(. c #A94824",
"). c #A1512B",
"_. c #A24533",
"`. c #AA4336",
"'. c #AB433C",
"]. c #A24A3A",
"[. c #A04C34",
"{. c #A35435",
"}. c #964740",
"|. c #9B4840",
" X c #A3494B",
".X c #CA9B3F",
"XX c #DC9536",
"oX c #DD9139",
"OX c #E7933D",
"+X c #CD8D43",
"@X c #D48C45",
"#X c #D48C4B",
"$X c #D88D49",
"%X c #D59045",
"&X c #DC9346",
"*X c #DD944C",
"=X c #DA9547",
"-X c #CE8E50",
";X c #D58C54",
":X c #DA8E53",
">X c #DD8B5B",
",X c #DD8555",
"<X c #DC9453",
"1X c #D5925A",
"2X c #E48E46",
"3X c #E48D4F",
"4X c #E0934C",
"5X c #E1994C",
"6X c #E09941",
"7X c #E38C56",
"8X c #E19553",
"9X c #E2965B",
"0X c #E59A5A",
"qX c #F39659",
"wX c #D3A051",
"eX c #DB8D63",
"rX c #E18963",
"tX c #E69965",
/* pixels */
"q ; #                                                                                                                           ",
"q - #                                                                                                                           ",
"# #                                                                                                                             ",
"        X                                                                                                                       ",
"                                                                                                                                ",
"                                                                                                                                ",
"        O                                                                                                                       ",
"#                                                                                                                               ",
"                                                                                  o                                             ",
"                                            .   O                                                                               ",
"                                          .   X   X                       O   .   O                                             ",
"                                          X O     . +     +   + . .     O   O                                                   ",
"                                        X   o   O     O X . .   O     O   X                                                     ",
"                                            O     .                     O . .   o                                               ",
"                                        X X O   O   .                     . X   O       o                                       ",
"                                        O . o                             #           X O                                       ",
"                                O         . -.~ | ;.' X.#.Q ] } ( ` ( ` } #.$   O . #   +   O .                                 ",
"                                    O   . % `  .$.{ { Q } @.O.' { ~ #.$.{ T .   X   O     X @                                   ",
"                                #   O   o.) J.m.z.N.Z.Y.rX>XN.i.I.V.g.m.V.U.} #.` [ =   O                                       ",
"                          X .     O   + o. .5.^.V.m.6.M.3X7XA.V.m.m.N.N.Z.x. .` / O.O o   o     . X                       .   X ",
"                          X     o X     o.^ U./.6.N.D.z.y.f.V.Y.P.q.7.7.C.1.Y.u.^.W.Q o..   O O         O                       ",
"                              O .   O $ :...E.5.^.d.3.W.3.I.R.8.E.H.!.Z.Y.A.P.c.B.b.( ' . o + O                             O   ",
"                        X .       * W :.*.c.m.Z.*X<X#X;XY.Y.u.f.h.p.@X@X*X#XZ.z.7.~.V.c.u w + #                                 ",
"                        . X O   O   o.) P.M.F.f.:X;X*X9X8.R.Z.J._.7.qX2X4X0X6.R.I.s.A.V.i f                               O . X ",
"                          . . . .   :.} m.C.eX;X*XXX*XXXY.+.D 4 *.g.+X.XOX3Xz.i.N.f.k.'.5 u . O   X                             ",
"                              O O   ~ ` f.M.>X<X=X&X3X&XU.J.Z D T.^.-XwX5X;XA.C.M.^.x.H.6 f   .                                 ",
"                          O   +     Y ] <X@X&X5X9X%XtX@XZ.p.J.S.V.1.F.3.A.z.9.j.b.T.C 6 5 f   &   .                             ",
"                          + X X . . _ / <X&X6X&X&X&X;X:XA.f.A.<.Z.).k.`.V.Q.x.i.0.e.F y v E X                                   ",
"                        . X . X ! ! E.b.8X*X&X%X&X8XN.A.q.I.R._.1X-XN.`.7.Z.]./.6 p < d v s   X                                 ",
"                        . . . . ' &.Y.u.,X>X5X0X<X9Xm.3.W.m.C.1.0X;XF.5.^.6.P.,.P p p K s 0 .         O                         ",
"                      O         ' Q A.l.M.).@X$XXX*Xa.{.3.Y.m.m.V.A.,.S.h.b.j i f , w i f i +   X                               ",
"                        O       ! #.m.z.V.Y.@X&X<XeXm.P.m.A.u.F.Z.m.^.v.9.t.y c H H s i i e # +                                 ",
"                          .     ;. .Z.C.U.V.P.M.M.z.V.V.U.C._.8.P.d.p.w.a. Xd F l.v.2 i   + O X                                 ",
"                        . X   O ( / L.V.A.l._.H.V.V.I.w.P.P.c.K.z.~.D.e.B.4.7 6 W.L.G u . +                                     ",
"                                g 5 p M y i w.~.m.m.f.g.d.V.B 4 5 S e a P K y a u u a d       .                                 ",
"                        +     . > i c c d 8 V.Z.J.V.m.p.N.L.F R l v f y q e i m n r f d       .                                 ",
"                          .     f i S K p 5 F w 5 K f a K i e i w i T.Y.U K 2 1 H H A s   X   +                                 ",
"                        O       t t L i S e f K y f z x E 9 p i f 5 V.u.a a K f 4 K u i   O                                     ",
"                        .       & $ q < q.Z.C.x.k 5 4 1 5 i a b |.6.A.m.f d c 3 i < X X                                         ",
"                          .     X . j 8 '.v.w.c.S w s H u I 3 h m.j.+.Z.J H r e H f .   +                                       ",
"                              O   . v y H M Z.(.z.4.5 p f u N l 6.K.V 1 d i f u   X                                             ",
"                                . . i i f L %.x.I.T.i s d j F 6 L.%.G y l d y I       .                                         ",
"                          .       . 5 f y 3 G N 2.W.> K r r v a F F y y f d . .       X                                         ",
"                        X         o , w f f f i J.H.7 p e a s v 3 i p f r a X   X .                                             ",
"                              o @   . o i a y , 4 D y f W G u i 5 k p y . . O                                                   ",
"                            O   O   O   d f f n d n n 0 u u i u 5 e i f o   @ @ X   O                                           ",
"                                    O   + .         X .   . X + +     o         .                                               ",
"                        X             .   X . X . +   O X     O O O +     X .     O O                                           ",
"                                      X   .       O                                                                             ",
"                                                                                                                                ",
"                                                                                                                                ",
"                                                                                                                                ",
"                                                                                                                                ",
"                                                                                                                                ",
"                                                                                                                                ",
"                                                                                                                                ",
"                                                                                                                                ",
"                                                                                                                                ",
"                                                                                                                                ",
"                                                                                                                                ",
"                                                                                                                                ",
"                                                                                                                                ",
"                                                                                                                                ",
"                                                                                                                                "
};
