/* XPM */
static char *result[] = {
/* columns rows colors chars-per-pixel */
"35 25 52 1 ",
"  c #061A3F",
". c #141C31",
"X c #0F1F43",
"o c #111F44",
"O c #0B2345",
"+ c #0F2449",
"@ c #122445",
"# c #12264C",
"$ c #152A4D",
"% c #1A2B4D",
"& c #1E324D",
"* c #192650",
"= c #162C51",
"- c #1B2D51",
"; c #112E58",
": c #1D3153",
"> c #1E335B",
", c #202342",
"< c #282D40",
"1 c #202F4C",
"2 c #24354B",
"3 c #233455",
"4 c #283755",
"5 c #263957",
"6 c #2D3856",
"7 c #23355B",
"8 c #29375C",
"9 c #243A5D",
"0 c #2A3B5D",
"q c #203764",
"w c #253B61",
"e c #2C3E62",
"r c #333D64",
"t c #303F68",
"y c #38445E",
"u c #2B4165",
"i c #2B426A",
"p c #324266",
"a c #3A4464",
"s c #35456A",
"d c #39466C",
"f c #35496C",
"g c #3B4A6E",
"h c #2F4B73",
"j c #3D4C71",
"k c #3C5073",
"l c #4C4B51",
"z c #54535B",
"x c #414D73",
"c c #455175",
"v c #5A6277",
"b c None",
/* pixels */
"bbbbbbbb::%,bbbbbbbbbbbbbbbwuu2bbbb",
"bbbbbb>t7O%@-@bbbbbbbbbbb-+qi03bbbb",
"bbbbbi>t3$8rdep9bbbbbbbt8e$7u95bbbb",
"bbbb8t>t-%rxxdjp#bbbbbdxgf->e05bbbb",
"bbbb6i7t-*rrarau%::#8xrddf$quu3bbbb",
"bbbb6i>t3-rrdrgs:7>#ejrdds$9u03bbbb",
"bbbb8t>t-%rdcdks==7-ecdxgf=>905bbbb",
"bbbb8t>t:#8edru9>=7>>tttru$9u95bbbb",
"bbbb6i>tw$:-3->$7*w>ow7*%3$uiu2bbbb",
"bbbb8t>t>O#%X@$O->3@*-o@@-+qiu5bbbb",
"bbbb6t>t:%8drpf9--7#8r8e0u$9u04bbbb",
"bbbb8t>t%#8xdsgp=-3-rxdjgf:9u04bbbb",
"bbbb8i>t3-rxrrgs-::$ecpdff=uuu3bbbb",
"bbbb6iqt3-rxrrdp---#8gpspi$>ue4bbbb",
"bbbb6i>t*#0xaddp$-:%8cskff$>w04bbbb",
"bbbb6p>t7-rxxdji%-7#4gpkpf=9w84bbbb",
"bbbb6i>u:#-9:7w::37#:e7r5e;uuu2bbbb",
"bbbbykX>&&&:&&&:::2:::::&$&:::fbbbb",
"bbbb@3>;$#####=++=+#####$#+$$$:bbbb",
"bbbv@=i;qqqqqqqqqqqqqqq9>::::>:=bbb",
"bbb.yuihuuuiiiuwuuuuuuuuuuuuiuu&lbb",
"bbb<y8@%322:22322&222222&5455u5&zbb",
"bbbbbbbbbbbbbbbbbbbbbbbbbbbbbbbbbbb",
"bbbbbbbbbbbbbbbbbbbbbbbbbbbbbbbbbbb",
"bbbbbbbbbbbbbbbbbbbbbbbbbbbbbbbbbbb"
};
