/* XPM */
static char *result[] = {
/* columns rows colors chars-per-pixel */
"64 64 208 2 ",
"   c #000000",
".  c #0A0A0A",
"X  c #00041D",
"o  c #020818",
"O  c #07101F",
"+  c #1B1C17",
"@  c #040825",
"#  c #0B0C2A",
"$  c #0C1223",
"%  c #121228",
"&  c #121A2B",
"*  c #191C2C",
"=  c #091937",
"-  c #0C1D38",
";  c #151D33",
":  c #131D39",
">  c #1E1F3D",
",  c #1C242F",
"<  c #1B2335",
"1  c #14233D",
"2  c #1C233C",
"3  c #26262B",
"4  c #37322E",
"5  c #242635",
"6  c #212B3B",
"7  c #292C3A",
"8  c #25333A",
"9  c #37373B",
"0  c #44433C",
"q  c #0C1C42",
"w  c #0E1D4A",
"e  c #121F48",
"r  c #0C2244",
"t  c #0A264B",
"y  c #0F244A",
"u  c #132343",
"i  c #1A2645",
"p  c #152C46",
"a  c #1A2B44",
"s  c #13264B",
"d  c #19274C",
"f  c #152A4D",
"g  c #1A2B4D",
"h  c #1E324D",
"j  c #0C2955",
"k  c #172653",
"l  c #162B51",
"z  c #1C2D52",
"x  c #142F59",
"c  c #1C2E59",
"v  c #0C3955",
"b  c #1D3153",
"n  c #1D335B",
"m  c #173858",
"M  c #212443",
"N  c #242C43",
"B  c #262A47",
"V  c #252D4B",
"C  c #322A41",
"Z  c #2C3141",
"A  c #2B3845",
"S  c #24344B",
"D  c #2B324E",
"F  c #353A49",
"G  c #212E55",
"H  c #212759",
"J  c #232C5B",
"K  c #282F5D",
"L  c #233455",
"P  c #2A3454",
"I  c #253A55",
"U  c #2C3856",
"Y  c #23355B",
"T  c #2A355A",
"R  c #243B5D",
"E  c #2A3C5D",
"W  c #333C55",
"Q  c #383854",
"!  c #343758",
"~  c #343C5B",
"^  c #1A2B63",
"/  c #1B3B63",
"(  c #1C3966",
")  c #292F61",
"_  c #213664",
"`  c #2A3664",
"'  c #253B62",
"]  c #2C3D62",
"[  c #233B6C",
"{  c #2C3C6A",
"}  c #323D64",
"|  c #303F68",
" . c #423C47",
".. c #423A54",
"X. c #1C415C",
"o. c #38434A",
"O. c #27415A",
"+. c #2E425A",
"@. c #3B4857",
"#. c #34425C",
"$. c #0C4B6E",
"%. c #194463",
"&. c #254364",
"*. c #2B4165",
"=. c #26436A",
"-. c #2C426A",
";. c #324266",
":. c #3B4463",
">. c #364964",
",. c #33456B",
"<. c #39466C",
"1. c #354A6C",
"2. c #3B4A6E",
"3. c #28506A",
"4. c #38516D",
"5. c #2D4B72",
"6. c #334672",
"7. c #3C4574",
"8. c #364C74",
"9. c #3D4C71",
"0. c #3B4679",
"q. c #375279",
"w. c #43474C",
"e. c #51594A",
"r. c #444C53",
"t. c #4B4A52",
"y. c #43465A",
"u. c #514E53",
"i. c #48555C",
"p. c #575757",
"a. c #5A5A5A",
"s. c #615D57",
"d. c #454663",
"f. c #474A69",
"g. c #495266",
"h. c #414D73",
"j. c #445276",
"k. c #49567E",
"l. c #5B6174",
"z. c #616369",
"x. c #696769",
"c. c #72736E",
"v. c #696875",
"b. c #736F77",
"n. c #747372",
"m. c #74737A",
"M. c #777C7B",
"N. c #7B7C7C",
"B. c #8F917A",
"V. c #3A688A",
"C. c #475A82",
"Z. c #4D648C",
"A. c #6E7483",
"S. c #737884",
"D. c #7C7A82",
"F. c #6E6B96",
"G. c #7F7C91",
"H. c #4C6EB6",
"J. c #707CA2",
"K. c #8463BC",
"L. c #17838D",
"P. c #45828E",
"I. c #7B8287",
"U. c #658EAA",
"Y. c #3FADC4",
"T. c #22B0C4",
"R. c #57A5CB",
"E. c #65ACC8",
"W. c #3FC5CE",
"Q. c #1CFCC6",
"!. c #20FFD8",
"~. c #34FDF0",
"^. c #59DBCF",
"/. c #6FD9D2",
"(. c #56E3C8",
"). c #52ECE2",
"_. c #47FFED",
"`. c #64E1F7",
"'. c #848483",
"]. c #848589",
"[. c #989A8F",
"{. c #868893",
"}. c #959593",
"|. c #94989C",
" X c #9CA293",
".X c #A5A699",
"XX c #9E9DA5",
"oX c #ADADAD",
"OX c #AEB5AE",
"+X c #B4B5A7",
"@X c #B3B3B3",
"#X c #BBB9B7",
"$X c #BABBB9",
"%X c #BCC0B9",
"&X c #B9B9C5",
"*X c #98CDD2",
"=X c #8BDFD3",
"-X c #C6C4C9",
";X c #D4D7CE",
":X c #C4C0D6",
">X c #D0CFD7",
",X c #D5D6D9",
"<X c #E2DCDC",
"1X c #D6DBE1",
"2X c #EBE8EE",
"3X c #F3EFF0",
"4X c #F7F8F8",
"5X c #FDFDFE",
/* pixels */
"          .   .                                     .                                     .                                     ",
"  .                                                       .                         .                                           ",
"    .     .   .                               .                             .                                                   ",
"                                                                                                                                ",
"  .           .                                             *X/.!.^.*X=X                                                        ",
".           .             .                                 /._.L.E._.(.                                                        ",
"  .         oX$X.     .                                     ).P.$.^ W.(.                                                        ",
"        .   $X@X                                            ~.F.R.K.Y.Q.                                                        ",
"                          .                                 ~.J.T.H.`.Q.                                                        ",
"          .     .                                           P.k.Z.C.V.U.                                                        ",
"                                                      ..~ R v ' ,./ x v 4.y.w.                                                  ",
"                                              M - - d J G Y =.g n ^ { x g u a q = #                                             ",
"                                              Y { 5.q.8.6.| ` 1.-.} 7.0.7.*.&.C.j.T d.                                          ",
"                                          i.Z E ] %.v x ` } T *.Y J H ` ` ^ x t / z #.Z                                         ",
"                                          #.@.-.%.X.&.*.+.] *.O.*.,.] ,.-.8.5.4.1.R O.-                                         ",
"                                      ; p f j E b f b P g b X.h b O.m m f x c y f &.n -.= i j.                                  ",
"                      .             % #.L q.%.-.-.1.<.<.} -.%.-.R m X.3.m *.{ <.] [ [ [ [ k w                                   ",
"                .         .         - &.( j.Q 7 5 5 A * 5 Z ..y.Q f.y.d...d.Q .. .u.y.f._ j x                                   ",
"                                    : n x k.@ D.|...].v.].u.&X}.9 n.}.}.w.B.$X].D.N.t.:.) j                                     ",
"                  .   .   .         : -._ C.@ z.D.t.m.XX{.v.>X}.+ p.|.'.+ c.$XG.I.].o.g.                                        ",
"                    .               X z c | V $ o & o Z O * < P N Q ! : S d.P Z o.r.8 E                                         ",
"                  .     .   . .       E n s P >.U E S - h U 1 ` k r ' Y l q s s p 1 i s ` G }                                   ",
"                @X@X  .               2.8.l G k n s ' c ] c ' p O.O.= R I I p ` L p ] ^ 0._                                     ",
"                @X@X    .   . .   .   d -.Y <.d J G G | z u z V p a a I 1 g I G k f ` / -.P                                     ",
"                  .     .             #.8.y ;.! } P P M U U T | J c 9.G ` ) ) ` E O.I ' &.+.                                    ",
"                  .           .       U 5.c 6.a D '.3 D.o.z.p.& K s 9 M. .G.w.s.x.< E 2.E h                                     ",
"                            a.a.      P ,.c ,.= S.4Xn.5X|.,X3X< J ` i.4XD.4X$X+X4X< g Y R L                                     ",
"                      . .   a.p..     U 6.c ,.1 A.5Xa.5X].,X<X& e G r.4XD.3X%X.X5X6 U { *.P                                     ",
"                  .       . . .       U -.c ,.= F '.4 K.0 s.x.6 ` z 8 .X .b.e.0 N.$ S -.-.]                                     ",
"                                      P ,.c ,.S z.3Xs.,Xc.%X$X& ` L o.;Xm.-X.X X$XW ;.-.] Y                                     ",
"                      .     .         U 5.c 6.@ S.5Xb.5X X2X1X< J c r.5Xb.5XOX#X4XN a Y { E                                     ",
"                          .     .     U -.c ,.L l.1Xu.,XI.@XXX2 J _ r.>Xv.:X}.}.&XU J -.*.I                                     ",
"                              .       U -.c <.R ; 9 , , , 7 3 N ) J 8 3 C % 5 3 * M z ] Y U                                     ",
"                                .     T 6.n *.I h : & % 2 & i Y f R z - d z d d z f ' -.*.h                                     ",
"                                      P 6.n ;.s E @.{.m.{.g.N m c Y z z ;.;.} ~ ' b ' ] *.S                                     ",
"                                      P 6.c ;.k ~ r.$X[.$XS.< b b g s E h.<.2.9.<.n n ' *.I                                     ",
"                                      P 6.n *.c U o.+XB.+XI.& Y b s q E h.} ;.h.,.b Y *.;.L                                     ",
"                                      P 6.c ;.J U r..XB..X{.& R L g e ] j.;.<.2.-.b n &.+.b                                     ",
"                                      P 6.c ;.c P r.M.c.m.v.; b b Y g E j.<.9.h.,.b n R ] b                                     ",
"                                      T 6.n ;.Y b D o.9 F Q 1 z z ] Y L *.} } ;.] z n R *.S                                     ",
"                                      P 6.c ;.n b a M > B e S Y b 2.*.g L T G g Y k ' *.*.L                                     ",
"                                      U -.n ;.b r g s g u g r Y b *.L u g g e u z u R -.E L                                     ",
"                                      U -.n -.n g ` ` 7.} >.m g s E b g ;.#.;.U { f Y ' R I                                     ",
"                                      U -.n } z g ;.<.h.<.2.| s g L z E 9.<.h.<.1.l n *.E I                                     ",
"                                      U -.Y | L d } } f.~ <.*.f b L s T 2.} <.<.1.f Y -.] L                                     ",
"                                      U -.^ { L z } } f.} 2.;.b Y n s ] 9.] <.<.<.f R *.E I                                     ",
"                                      U -.n | z g } <.j.<.9.-.b z Y k ] h.<.9.<.1.g n ' R L                                     ",
"                                      T -.n | b s T ] <.] ,.R n l Y n Y 7.| | ] *.k ' ' R I                                     ",
"                                      U -.n ;.' f b g Y g n l n k ' c s T Y k g Y f *.-.*.L                                     ",
"                                      U { Y | Y r s a e u s r h L Y u s z e i u b y ' -.+.P                                     ",
"                                      U -.^ ;.m l T <.} *.1.' f z Y d T | T ] E *.f ' ' R P                                     ",
"                                      U -.n | g s T h.<.<.9.;.f z b z ] h.<.9.1.1.l R *.E Y                                     ",
"                                      U { Y } Y z } f.| | h.>.z b b f ] j.;.<.>.1.l ' *.+.P                                     ",
"                                      U -.n { L V } f.} } <.;.z g b s T 2.;.<.>.,.f n *.] I                                     ",
"                                      U -.n -.g s E h.<.<.2.*.g z z g E h.<.h.1.1.l n &.E U                                     ",
"                                      T -.n ;.n k ] h.2.7.h.-.g z Y g Y 2.;.2.-.1.l ' ' Y P                                     ",
"                                      U -.Y { L s z Y L Y ' b b L Y s G ] T { L *.z &.*.E L                       .             ",
"                                      #.9.q R h h h h h h h h z b b h b b S b h s f L L L 1.  .                                 ",
"                                      1 R n j s s y s s y f s s s s s f s f s f y p f g f m                     . .         .   ",
"                                    l.u l =.x / _ ( _ ( _ ( _ / / _ ( _ ( _ _ m b b m m b b f                       .     .   . ",
"                                    ; U *.-.5.-.-.-.{ =.{ =.-.*.&.*.*.*.*.*.*.&.-.-.*.-.,.&.n t.                  .         .   ",
"                                    7 <.U s g S S S S S S S S S S S S S S S S g P L S S U U g p.                    .           ",
"                                                                                .   .     .                     .   @X@X  .     ",
"                                                                                            .                       @X$X        "
};
