/* XPM */
static char *result[] = {
/* columns rows colors chars-per-pixel */
"61 64 205 2 ",
"   c #3B2F19",
".  c #333938",
"X  c #533B12",
"o  c #433B26",
"O  c #453D29",
"+  c #3E4139",
"@  c #3F4137",
"#  c #56411C",
"$  c #5C4012",
"%  c #604314",
"&  c #404137",
"*  c #775520",
"=  c #785621",
"-  c #7D5925",
";  c #644B23",
":  c #2C3A41",
">  c #323F45",
",  c #3C4645",
"<  c #35464E",
"1  c #3A464A",
"2  c #3C484B",
"3  c #3A4B54",
"4  c #3C4E58",
"5  c #364750",
"6  c #3E515A",
"7  c #385154",
"8  c #2A6D51",
"9  c #42545E",
"0  c #49575F",
"q  c #515450",
"w  c #7F735C",
"e  c #435560",
"r  c #465A65",
"t  c #4A5C66",
"y  c #4D5E68",
"u  c #515E67",
"i  c #486564",
"p  c #57646A",
"a  c #5C6B73",
"s  c #64747C",
"d  c #69767E",
"f  c #747065",
"g  c #A27636",
"h  c #D76B17",
"j  c #D86E10",
"k  c #ED6B02",
"l  c #EE6D09",
"z  c #E76D09",
"x  c #EC7200",
"c  c #E77313",
"v  c #CD732D",
"b  c #C87B3C",
"n  c #CB6C22",
"m  c #957B56",
"M  c #268A58",
"N  c #12BB57",
"B  c #1DB35A",
"V  c #16BA59",
"C  c #22AD5A",
"Z  c #20B25F",
"A  c #3AAC6B",
"S  c #28B563",
"D  c #34B469",
"F  c #518E76",
"G  c #46AC72",
"H  c #01C653",
"J  c #0BC456",
"K  c #09C557",
"L  c #11C359",
"P  c #BD8534",
"I  c #FF8A09",
"U  c #F5900C",
"Y  c #FE9108",
"T  c #EC8D1A",
"R  c #F38C16",
"E  c #EE9115",
"W  c #EC921C",
"Q  c #FD9111",
"!  c #F39117",
"~  c #DD9534",
"^  c #DF993A",
"/  c #D8943D",
"(  c #D78C33",
")  c #E28F25",
"_  c #E59125",
"`  c #E99424",
"'  c #EB9827",
"]  c #E9962A",
"[  c #E8962A",
"{  c #F19B2B",
"}  c #E29937",
"|  c #F39B36",
" . c #EAA03E",
".. c #BD8E4C",
"X. c #CF9449",
"o. c #DB9C49",
"O. c #D39846",
"+. c #D69E54",
"@. c #D08F52",
"#. c #E29E46",
"$. c #D8A156",
"%. c #E2A04B",
"&. c #E8A95A",
"*. c #CE9A66",
"=. c #D4A464",
"-. c #DCB278",
";. c #DBAC70",
":. c #E3AE67",
">. c #E3AF69",
",. c #E9B572",
"<. c #FAC379",
"1. c #6C7A81",
"2. c #707F87",
"3. c #73828A",
"4. c #7F8E96",
"5. c #58BA83",
"6. c #6FCE95",
"7. c #879299",
"8. c #929CA2",
"9. c #94A2AA",
"0. c #99A3A8",
"q. c #9EADB4",
"w. c #88A1A1",
"e. c #A5B1B9",
"r. c #B8BCBC",
"t. c #A3ABAE",
"y. c #D9B98F",
"u. c #E9B993",
"i. c #F4BD89",
"p. c #94CAB6",
"a. c #91E9B3",
"s. c #F8C886",
"d. c #E5C291",
"f. c #EAC897",
"g. c #EBCA9B",
"h. c #ECC398",
"j. c #F3CA96",
"k. c #F7CB8B",
"l. c #DACBB4",
"z. c #EACEA4",
"x. c #EBCFAA",
"c. c #EDD3AD",
"v. c #EED0A5",
"b. c #FAD7A5",
"n. c #EAD4B3",
"m. c #E4D4BC",
"M. c #FFDAB6",
"N. c #F5CBAA",
"B. c #FFE4A8",
"V. c #FEE5BC",
"C. c #AEBCC4",
"Z. c #B0BDC4",
"A. c #B4C2C9",
"S. c #B8C8C9",
"D. c #BECBD2",
"F. c #A9DAC5",
"G. c #BAFCD8",
"H. c #AEF4D0",
"J. c #DDD5C4",
"K. c #D6D4CC",
"L. c #DBD6CA",
"P. c #DCD8CE",
"I. c #CCD3D6",
"U. c #C6D3D9",
"Y. c #CDD6DB",
"T. c #CDD8DD",
"R. c #C3D7D7",
"E. c #D1D5D2",
"W. c #D1D7DA",
"Q. c #D3DADD",
"!. c #D8D9D5",
"~. c #C1CCD1",
"^. c #E1D6C2",
"/. c #E4D8C7",
"(. c #F3DDC0",
"). c #C5FFDE",
"_. c #D0E5DF",
"`. c #FFE9C4",
"'. c #FEEDD6",
"]. c #F9ECDB",
"[. c #FFF5D5",
"{. c #FEF2DE",
"}. c cornsilk",
"|. c #F1EBD2",
" X c #CEDAE1",
".X c #D2DDE3",
"XX c #D9DEE1",
"oX c #CCE5E2",
"OX c #D5E0E7",
"+X c #DDE2E4",
"@X c #D4FFE9",
"#X c #CAFFE1",
"$X c #E2E7E9",
"%X c #E6EAEC",
"&X c #E9EDEF",
"*X c #F0EDE8",
"=X c #F4EDE2",
"-X c #FEF5E5",
";X c #FFFDED",
":X c #FBF6EA",
">X c #EAEFF0",
",X c #EAF8F3",
"<X c #FDFEFD",
"1X c #F5F5F5",
"2X c None",
/* pixels */
"2X2X2X2X2X2X2X2X2X2X2X2X2X2X2X2X2X2X2X2X2X2X2X2X2X2X2X2X2X2X2X2X2X2X2X2X2X2X2X2X2X2X2X2X2X2X2X2X2X2X2X2X2X2X2X2X2X2X2X2X2X",
"2X2X2X2X2X2X2X2X2X2X2X2X2X2X2X2X2X2X2X2X2X2X2X2X2X2X2X2X2X2X2X2X2X2X2X2X2X2X2X2X2X2X2X2X2X2X2X2X2X2X2X2X2X2X2X2X2X2X2X2X2X",
"2X2X2X2X2X2X2X2X2X2X2X2X2X2X2X2X2X2X2X2X2X2X2X2X2X2X2X2X2X2X2X2X2X2X2X2X2X2X2X2X2X2X2X2X2X2X2X2X2X2X2X2X2X2X2X2X2X2X2X2X2X",
"2X2X2X2X2X2X2X2X2X2X2X2X2X2X2X2X2X2X2X2X2X2X2X2X2X2X2X2X2X2X2X2X2X2X2X2X2X2X2X2X2X2X2X2X2X2X2X2X2X2X2X2X2X).5.A G 6.@X,X2X",
"2X2X2X2X2X2X2X2X2X2X2X2X2X2X2X2X2X2X2X2X2X2X2X2X2X2X2X2X2X2X2X2X2X2X2X2X2X2X2X2X2X2X2X2X2X2X2X2X2X2X2X2XH.D B N V B 5.@X2X",
"2X2X2X2X2X2X2X2X2X2X2X2X2X2X2X2X2X2X2X2X2X2X2X2X2X2X2X2X2X2X2X2X2X2X2X2X2X2X2X2X2X2X2X2X2X2X2X+XW.R.,X#XD L K H H L C a.2X",
"2X2X2X2X2X2X2X2X2X2X2X2X2X2X2X2X2X2X2X2X2X2X2X2X2X2X2X2X2X2X2X2X2X2X2X2X2X2X2X2X2X2X2X2X2X2XQ.I.Y.oXF.G V K H H H L B 6.2X",
"2X2X2X2X2X2X2X2X2X2X2X2X2X2X2X2X2X2X2X2X2X2X2X2X2X2X2X2X2X2X2X2X2X2X2X2X2X2X2X2X2X2X2X2X2XY.U..X Xw.8 8 S J K H H L C a.2X",
"2X2X2X2X2X2X2X2X2X2X2X2X2X2X2X2X2X2X2X2X2X2X2X2X2X2X2X2X2X2X2X2X2X2X2X2X2X2X2X2X2X2X2XQ.U.T..XC.1.4 7 F 5.Z N H H L G #X2X",
"2X2X2X2X2X2X2X2X2X2X2X2X2X2X2X2X2X2X2X2X2X2X2X2X2X2X2X2X2X2X2X2X2X2X2X2X2X2X2X2X2X+XI.Y..XR.7.9 6 9 1.D.H.5.Z N N D G.2X2X",
"2X2X2X2X2X2X2X2X2X2X2X2X2X2X2X2X2X2X2X2X2X2X2X2X2X2X2X2X2X2X2X2X2X2X2X2X2X2X2X$XY.I..X.Xq.a 6 r 4 1. XU. Xp.M S G G.2X2X2X",
"2X2X2X2X2X2X2X2X2X2X2X2X2X2X2X2X2X2X2X2X2X2X2X2X2X2X2X2X2X2X2X2X2X2X2X2X2X2XQ.I.Y..XD.2.6 e r 6 1.U. X.XC.i 8 F G.,X2X2X2X",
"2X2X2X2X2X2X2X2X2X2X2X2X2X2X2X2X2X2X2X2X2X2X2X2X2X2X2X2X2X2X2X2X2X2X2X2X2X+XI.Y.T.9.r 6 r t 6 s U. X XA.p 6 i S.oX+X2X2X2X",
"2X2X2X2X2X2X2X2X2X2X2X2X2X2X2X2X2X2X2X2X2X2X2X2X2X2X2X2X2X2X2X2X2X2X2X2X2XQ.I.R.1.4 r r r 6 s U.U. XA.y e 6 9.OXR.Q.2X2X2X",
"2X2X2X2X2X2X2X2X2X2X2X2X2X2X2X2X2X2X2X2X2X2X2X2X2X2X2X2X2X2X2X2X2X2X2X2X>XI.OXq.3 r r t 6 s T.T. XA.y e 9 d .XY.I.2X2X2X2X",
"2X2X2X2X2X2X2X2X2X2X2X2X2X2X2X2X2X2X2X2X2X2X2X2X2X2X2X2X2X2X2X2X2X2X2X2X+XY.OX3.6 r t 4 s T.T. XA.y e r 9 Z..XI.+X2X2X2X2X",
"2X2X2X2X2X2X2X2X2X2X2X2X2X2X2X2X2X2X2X2X2X2X2X2X2X2X2X2X2X2X2X2X2X2X2X&XW. X~.u e r 9 s  X X.XA.i e y 4 7..XY.Y.>X2X2X2X2X",
"2X2X2X2X2X2X2X2X2X2X2X2X2X2X2X2X2X2X2X2X2X2X2X2X2X2X2X2X2X2X2X2X2X2X2X&XI..X0.9 y 4 s U. X.XA.y e r e a I.W.I.&X2X2X2X2X2X",
"2X2X2X2X2X2X2X2X2X2X2X2X2X2X2X2X2X2X2X2X2X2X2X2X2X2X2X2X2X2X2X2X2X2X2X+XI. Xe.t 9 s  XY. XZ.i e r r 6 e..XY.XX2X2X2X2X2X2X",
"2X2X2X2X2X2X2X2X2X2X2X2X2X2X2X2X2X2X2X2X2X2X2X2X2X2X2X2X2X2X2X2X2X2X2XI.W.Y..Xq.d U. X.XZ.u e r r 6 2.OXY.Y.2X2X2X2X2X2X2X",
"2X2X2X2X2X2X2X2X2X2X2X2X2X2X2X2X2X2X2X2X2X2X2X2X2X2X2X2X2X2X2X2X2X2XQ.Y.T.T.Y. X XY..XZ.p 9 r r r y ~. XI.$X2X2X2X2X2X2X2X",
"2X2X2X2X2X2X2X2X2X2X2X2X2X2X2X2X2X2X2X2X2X2X2X2X2X2X2X2X2X2X2X2X2XQ.I.Y.E.K.P.K.I.W.Z.p e r r 6 3 9..XI.XX2X2X2X2X2X2X2X2X",
"2X2X2X2X2X2X2X2X2X2X2X2X2X2X2X2X2X2X2X2X2X2X2X2X2X2X2X2X2X2X2X2XW.Y.Y.E.L.l.y.N.K. Xe.9 e 4 e a 8.U. X X2X2X2X2X2X2X2X2X2X",
"2X2X2X2X2X2X2X2X2X2X2X2X2X2X2X2X2X2X2X2X2X2X2X2X2X2X2X2X2X2X2XW.Y.T.E.J.z.*.X.;.J.Y.XXe.a 7.Z.T.OX XU.2X2X2X2X2X2X2X2X2X2X",
"2X2X2X2X2X2X2X2X2X2X2X2X2X2X2X2X2X2X2X2X2X2X2X2X2X2X2X2X2X2XQ.I.Y.E.J.z.#._ [ X.l.W.I..XT..X.XY.I.Y.2X2X2X2X2X2X2X2X2X2X2X",
"2X2X2X2X2X2X2X2X2X2X2X2X2X2X2X2X2X2X2X2X2X2X2X*X=X;X{.-X;XI.Y.T.E.J.z.$.` W ~ s.^.E.Y.T.Y.I.I.W.2X2X2X2X2X2X2X2X2X2X2X2X2X",
"2X2X2X2X2X2X2X2X2X2X2X2X2X2X2X2X2X2X2X2X2X2X*X:X[.B.b.V.L.I.Q.E.J.z.o.` W ~ d.m.E.Y.Y.I.Y.Q.2X2X2X2X2X2X2X2X2X2X2X2X2X2X2X",
"2X2X2X2X2X2X2X2X2X2X2X2X2X2X2X2X2X2X2X2X2X2X1XJ.-.o./ $.v.J.K.J.z.+.` W ~ s.J.U.Y.Y.Y.2X2X2X2X2X2X2X2X2X2X2X2X2X2X2X2X2X2X",
"2X2X2X2X2X2X2X2X2X2X2X2X2X2X2X2X2X2X2X2X2X2X<Xm g o.W _ %.k.c.g.#.` W ~ d.^.K.T.Y.I.2X2X2X2X2X2X2X2X2X2X2X2X2X2X2X2X2X2X2X",
"2X2X2X2X2X2X2X2X2X2X2X2X2X2X2X2X2X2X2X2X2X2X&Xq X P { E W  .<.$.W W ^ s.J.I.I.T.Y.2X2X2X2X2X2X2X2X2X2X2X2X2X2X2X2X2X2X2X2X",
"2X2X2X2X2X2X2X2X2X2X2X2X2X2X2X2X2X2X2X2X2X2XY., & # P ] E E W W W / f.^.E.I.T.I.2X2X2X2X2X2X2X2X2X2X2X2X2X2X2X2X2X2X2X2X2X",
"2X2X2X2X2X2X2X2X2X2X2X2X2X2X2X2X2X2X2X2X2X2X7.. 2 @ $ P [ U Y U ' <.m.I.W.T.I.2X2X2X2X2X2X2X2X2X2X2X2X2X2X2X2X2X2X2X2X2X2X",
"2X2X2X2X2X2X2X2X2X2X2X2X2X2X2X2X2X2X2X2X2XS.1 < < 1 + # P ' U U { s.m.T.Y.Y.2X2X2X2X2X2X2X2X2X2X2X2X2X2X2X2X2X2X2X2X2X2X2X",
"2X2X2X2X2X2X2X2X2X2X2X2X2X2X2X2X2X2X2X2XA.1 < 5 < < 5 + $ P ' ! W %.v.L.E.2X2X2X2X2X2X2X2X2X2X2X2X2X2X2X2X2X2X2X2X2X2X2X2X",
"2X2X2X2X2X2X2X2X2X2X2X2X2X2X2X2X2X2X2X0.> 1 2 5 < < < 1 + # P ] E W %.j.].2X2X2X2X2X2X2X2X2X2X2X2X2X2X2X2X2X2X2X2X2X2X2X2X",
"2X2X2X2X2X2X2X2X2X2X2X2X2X2X1X<X=Xr.p . < < < < < < < 5 5 + $ P ' ! _ >.{.2X2X2X2X2X2X2X2X2X2X2X2X2X2X2X2X2X2X2X2X2X2X2X2X",
"2X2X2X2X2X2X2X2X2X2X2X2X2X2X;X'.m   > 3 < < < < < < < < 5 1 . # P } _ =.}.2X2X2X2X2X2X2X2X2X2X2X2X2X2X2X2X2X2X2X2X2X2X2X2X",
"2X2X2X2X2X2X2X2X2X2X2X2X2X2X}.y...- O , < 5 < < < < < < < < 2 & % P O.<.-X2X2X2X2X2X2X2X2X2X2X2X2X2X2X2X2X2X2X2X2X2X2X2X2X",
"2X2X2X2X2X2X2X2X2X2X2X2X2X2X`.=.} ~ = O 2 5 < < < < < < 5 < 1 , . X ..(.:X2X2X2X2X2X2X2X2X2X2X2X2X2X2X2X2X2X2X2X2X2X2X2X2X",
"2X2X2X2X2X2X2X2X2X2X2X2X2X2X[.-.) [ O.*   , < < < < < < 1 < : 9 3.0.l.{.2X2X2X2X2X2X2X2X2X2X2X2X2X2X2X2X2X2X2X2X2X2X2X2X2X",
"2X2X2X2X2X2X2X2X2X2X2X2X2X2X+Xn.>.( [ ~ = o , 5 5 5 < 5 1 , 7.2X2X2X2X2X2X2X2X2X2X2X2X2X2X2X2X2X2X2X2X2X2X2X2X2X2X2X2X2X2X",
"2X2X2X2X2X2X2X2X2X2X2X2X2X2XI.L.c.:.) ` O.= o , < 5 < 5 , e.2X2X2X2X2X2X2X2X2X2X2X2X2X2X2X2X2X2X2X2X2X2X2X2X2X2X2X2X2X2X2X",
"2X2X2X2X2X2X2X2X2X2X2X2X2XI.T.E.L.n.>.~ [ ~ = o 2 5 5 . w.2X2X2X2X2X2X2X2X2X2X2X2X2X2X2X2X2X2X2X2X2X2X2X2X2X2X2X2X2X2X2X2X",
"2X2X2X2X2X2X2X2X2X2X2X>XY.Y.T.I.T.K.c.>.) ` O.*   , , p 2X2X2X2X2X2X2X2X2X2X2X2X2X2X2X2X2X2X2X2X2X2X2X2X2X2X2X2X2X2X2X2X2X",
"2X2X2X2X2X2X2X2X2X2X2XE.Y.Y.Y.T.T.I.K.n.>.~ ` ~ * & @ S.2X2X2X2X2X2X2X2X2X2X2X2X2X2X2X2X2X2X2X2X2X2X2X2X2X2X2X2X2X2X2X2X2X",
"2X2X2X2X2X2X2X2X2X2XQ.T.Y.Y.Y.E.I.T.Y.K.c.>.) ] *.; f <X2X2X2X2X2X2X2X2X2X2X2X2X2X2X2X2X2X2X2X2X2X2X2X2X2X2X2X2X2X2X2X2X2X",
"2X2X2X2X2X2X2X2X2XQ.I.T.Y.W.Y.T.W.T.Y.W.K.n.>.O.X.*./.<X2X2X2X2X2X2X2X2X2X2X2X2X2X2X2X2X2X2X2X2X2X2X2X2X2X2X2X2X2X2X2X2X2X",
"2X2X2X2X2X2X2X2XXXY.Y.Y.T.Y.Y.Y.Y.T.Y.T.T.K.z.u.k.V.;X1X2X2X2X2X2X2X2X2X2X2X2X2X2X2X2X2X2X2X2X2X2X2X2X2X2X2X2X2X2X2X2X2X2X",
"2X2X2X2X2X2X2X%XY.Y.Y.Y.T.Y.Y.Y.Y.T.Y.T.Y.E.=X-X-X;X*X1X2X2X2X2X2X2X2X2X2X2X2X2X2X2X2X2X2X2X2X2X2X2X2X2X2X2X2X2X2X2X2X2X2X",
"2X2X-X(.d.V.'.E.E.Y.Y.Y.Y.Y.Y.Y.Y.Y.T.Y.W.2X2X2X2X2X2X2X2X2X2X2X2X2X2X2X2X2X2X2X2X2X2X2X2X2X2X2X2X2X2X2X2X2X2X2X2X2X2X2X2X",
"2X2X`.$.( #.g.^.E.Y.Y.Y.T.Y.Y.T.Y.T.Y.Q.2X2X2X2X2X2X2X2X2X2X2X2X2X2X2X2X2X2X2X2X2X2X2X2X2X2X2X2X2X2X2X2X2X2X2X2X2X2X2X2X2X",
"2X2X[.&.` R o.g.J.K.Y.Y.Y.Y.Y.W.T.I.XX2X2X2X2X2X2X2X2X2X2X2X2X2X2X2X2X2X2X2X2X2X2X2X2X2X2X2X2X2X2X2X2X2X2X2X2X2X2X2X2X2X2X",
"2X2X[.k.T Q W } f.J.E.Y.Y.Y.Y.W.I.$X2X2X2X2X2X2X2X2X2X2X2X2X2X2X2X2X2X2X2X2X2X2X2X2X2X2X2X2X2X2X2X2X2X2X2X2X2X2X2X2X2X2X2X",
"2X2XM.b j I Y ! o.h.^.E.W.Y.Y.W.$X2X2X2X2X2X2X2X2X2X2X2X2X2X2X2X2X2X2X2X2X2X2X2X2X2X2X2X2X2X2X2X2X2X2X2X2X2X2X2X2X2X2X2X2X",
"2X'.@.j x x I Q E } f.J.K.Y.W.%X2X2X2X2X2X2X2X2X2X2X2X2X2X2X2X2X2X2X2X2X2X2X2X2X2X2X2X2X2X2X2X2X2X2X2X2X2X2X2X2X2X2X2X2X2X",
"2XN.h l l k x I Y W o.h.J.!.1X2X2X2X2X2X2X2X2X2X2X2X2X2X2X2X2X2X2X2X2X2X2X2X2X2X2X2X2X2X2X2X2X2X2X2X2X2X2X2X2X2X2X2X2X2X2X",
"2Xu.h l k k k k I Q ! ^ b.{.2X2X2X2X2X2X2X2X2X2X2X2X2X2X2X2X2X2X2X2X2X2X2X2X2X2X2X2X2X2X2X2X2X2X2X2X2X2X2X2X2X2X2X2X2X2X2X",
"2Xu.h l k k k k x R ! ` =.}.2X2X2X2X2X2X2X2X2X2X2X2X2X2X2X2X2X2X2X2X2X2X2X2X2X2X2X2X2X2X2X2X2X2X2X2X2X2X2X2X2X2X2X2X2X2X2X",
"2X`.v l l k k l j T | / *.V.2X2X2X2X2X2X2X2X2X2X2X2X2X2X2X2X2X2X2X2X2X2X2X2X2X2X2X2X2X2X2X2X2X2X2X2X2X2X2X2X2X2X2X2X2X2X2X",
"2X2Xi.n h j c h v k.b.,.v.[.2X2X2X2X2X2X2X2X2X2X2X2X2X2X2X2X2X2X2X2X2X2X2X2X2X2X2X2X2X2X2X2X2X2X2X2X2X2X2X2X2X2X2X2X2X2X2X",
"2X2X2Xh.@.b b *.M.'.2X2X2X2X2X2X2X2X2X2X2X2X2X2X2X2X2X2X2X2X2X2X2X2X2X2X2X2X2X2X2X2X2X2X2X2X2X2X2X2X2X2X2X2X2X2X2X2X2X2X2X",
"2X2X2X2X2X2X2X2X2X2X2X2X2X2X2X2X2X2X2X2X2X2X2X2X2X2X2X2X2X2X2X2X2X2X2X2X2X2X2X2X2X2X2X2X2X2X2X2X2X2X2X2X2X2X2X2X2X2X2X2X2X",
"2X2X2X2X2X2X2X2X2X2X2X2X2X2X2X2X2X2X2X2X2X2X2X2X2X2X2X2X2X2X2X2X2X2X2X2X2X2X2X2X2X2X2X2X2X2X2X2X2X2X2X2X2X2X2X2X2X2X2X2X2X",
"2X2X2X2X2X2X2X2X2X2X2X2X2X2X2X2X2X2X2X2X2X2X2X2X2X2X2X2X2X2X2X2X2X2X2X2X2X2X2X2X2X2X2X2X2X2X2X2X2X2X2X2X2X2X2X2X2X2X2X2X2X"
};
