/* XPM */
static char *result[] = {
/* columns rows colors chars-per-pixel */
"64 64 108 2 ",
"   c #00040C",
".  c #00080F",
"X  c #000710",
"o  c #010C14",
"O  c #040F18",
"+  c #011017",
"@  c #05121A",
"#  c #09151E",
"$  c #09181F",
"%  c #0D1720",
"&  c #0D1A22",
"*  c #111D26",
"=  c #141F28",
"-  c #112027",
";  c #15222A",
":  c #19252E",
">  c #19282F",
",  c #1C2730",
"<  c #1C2A32",
"1  c #1F3037",
"2  c #212D35",
"3  c #252F38",
"4  c #24323A",
"5  c #29363E",
"6  c #2D3740",
"7  c #2C3A42",
"8  c #313E46",
"9  c #314047",
"0  c #35424A",
"q  c #39454D",
"w  c #39484F",
"e  c #3D4B52",
"r  c #414D56",
"t  c #474E58",
"y  c #45535A",
"u  c #4A555E",
"i  c #49585F",
"p  c #4C5A62",
"a  c #515E66",
"s  c #54626A",
"d  c #5A656E",
"f  c #57686F",
"g  c #5C6770",
"h  c #5C6A72",
"j  c #5F7077",
"k  c #626E76",
"l  c #666F78",
"z  c #617077",
"x  c #65737B",
"c  c #6A757E",
"v  c #69787F",
"b  c #6C7780",
"n  c #6D7B82",
"m  c #717D86",
"M  c #767F88",
"N  c #74838A",
"B  c #7A858D",
"V  c #79888F",
"C  c #7C8B93",
"Z  c #818D95",
"A  c #84939A",
"S  c #89969E",
"D  c #85989E",
"F  c #8C9AA2",
"G  c #919DA5",
"H  c #91A0A7",
"J  c #94A3AA",
"K  c #99A6AE",
"L  c #99A8AF",
"P  c #9DACB3",
"I  c #9FB0B7",
"U  c #A1AEB6",
"Y  c #A0B0B7",
"T  c #A5B3BB",
"R  c #A9B6BE",
"E  c #A7B8BF",
"W  c #A9B8BF",
"Q  c #ACBBC2",
"!  c #B1BEC6",
"~  c #B0C0C7",
"^  c #B4C2CA",
"/  c #B8C6CE",
"(  c #B6C9CF",
")  c #B9C8CF",
"_  c #BFC7D1",
"`  c #BCCBD2",
"'  c #BFD0D7",
"]  c #C2CDD6",
"[  c #C0D0D7",
"{  c #C5D3DB",
"}  c #C9D6DE",
"|  c #C5D8DE",
" . c #C9D8DF",
".. c #CCD7E0",
"X. c #CDDBE3",
"o. c #D1DEE6",
"O. c #D0E0E7",
"+. c #D5E4EB",
"@. c #DAE7EF",
"#. c #D8E8EF",
"$. c #DDECF3",
"%. c #DFF2F8",
"&. c #E0EFF6",
"*. c #E3F3FA",
"=. c #E8F7FE",
"-. c #EBF9FF",
";. c #F3FFFF",
":. c None",
/* pixels */
":.:.:.:.:.:.:.:.:.:.:.:.:.:.:.:.:.:.:.:.:.:.:.:.:.:.:.:.:.:.:.:.:.:.:.:.:.:.:.:.:.:.:.:.:.:.:.:.:.:.:.:.:.:.:.:.:.:.:.:.:.:.:.:.",
":.:.:.:.:.:.:.:.:.:.:.:.:.:.:.:.:.:.:.:.:.:.:.:.:.:.:.:.:.:.:.:.:.:.:.:.:.:.:.:.:.:.:.:.:.:.:.:.:.:.:.:.:.:.:.:.:.:.:.:.:.:.:.:.",
":.:.:.:.:.:.:.:.:.:.:.:.:.:.:.:.:.:.:.:.:.:.:.:.:.:.:.:.:.:.:.:.:.:.:.:.:.:.:.:.:.:.:.:.:.:.:.:.:.:.:.:.:.:.:.:.:.:.:.:.:.:.:.:.",
":.:.:.:.:.:.:.:.:.:.:.:.:.:.:.:.:.:.:.:.:.:.:.:.:.:.:.:.:.:.:.:.:.:.:.:.:.:.:.:.:.:.:.:.:.:.:.:.:.:.:.:.:.:.:.:.:.:.:.:.:.:.:.:.",
":.:.:.:.:.:.:.:.:.:.:.:.:.:.:.:.:.:.:.:.:.:.:.:.:.:.:.:.:.:.:.:.:.:.:.:.:.:.:.:.:.:.:.:.:.:.:.:.:.:.:.:.:.:.:.:.:.:.:.:.:.:.:.:.",
":.:.:.:.:.:.:.:.:.:.:.:.:.:.:.:.:.:.:.:.:.:.:.:.:.:.:.:.:.:.:.:.:.:.:.:.:.:.:.:.:.:.:.:.:.:.:.:.:.:.:.:.:.:.:.:.:.:.:.:.:.:.:.:.",
":.:.:.:.:.:.:.:.:.:.:.:.:.:.:.:.:.:.:.:.:.:.:.:.:.:.:.:.:.:.:.:.:.:.:.:.:.:.:.:.:.:.:.:.:.:.:.:.:.:.:.:.:.:.:.:.:.:.:.:.:.:.:.:.",
":.:.:.:.:.:.:.:.:.:.:.:.:.:.:.:.:.:.:.:.:.:.:.:.:.:.:.:.:.:.:.:.:.:.:.:.:.:.:.:.:.:.:.:.:.:.:.:.:.:.:.:.:.:.:.:.:.:.:.:.:.:.:.:.",
":.:.:.:.:.:.:.:.:.:.:.:.:.:.:.:.:.:.:.:.:.:.:.:.:.:.:.:.:.:.:.:.:.:.:.:.:.:.:.:.:.:.:.:.:.:.:.:.:.:.:.:.:.:.:.:.:.:.:.:.:.:.:.:.",
":.:.:.:.:.:.:.:.:.:.:.:.:.:.:.:.:.:.:.:.:.:.:.:.:.:.:.:.:.r $ # @ ; @ @ 8 % :.:.:.:.:.:.:.:.:.:.:.:.:.:.:.:.:.:.:.:.:.:.:.:.:.:.",
":.:.:.:.:.:.:.:.:.:.:.:.:.:.:.:.:.:.:.:.:.:.:.:.:.:.# @ ; - o + ;   : * c s o * $ :.:.:.:.:.:.:.:.:.:.:.:.:.:.:.:.:.:.:.:.:.:.:.",
":.:.:.:.:.:.:.:.:.:.:.:.:.:.:.:.:.:.:.:.:.:.:.o ,   ; -     r 5 $ = $ o : + > % $ ; @ : :.:.:.:.:.:.:.:.:.:.:.:.:.:.:.:.:.:.:.:.",
":.:.:.:.:.:.:.:.:.:.:.:.:.:.:.:.:.:.:.:.:.:., o % * $ u d s 0 :   o % * , @   - % $ %   8 :.:.:.:.:.:.:.:.:.:.:.:.:.:.:.:.:.:.:.",
":.:.:.:.:.:.:.:.:.:.:.:.:.:.:.:.:.:.:.:.& 9 7 o p n   q 0 x 0 k 6 B 4   & 2 q @ % $ % $   @ @ :.:.:.:.:.:.:.:.:.:.:.:.:.:.:.:.:.",
":.:.:.:.:.:.:.:.:.:.:.:.:.:.:.:.:.:.:.$ @ @ % & $ r @ o # # - 9 q ! *.e   m A   , A 4 k r % & o :.:.:.:.:.:.:.:.:.:.:.:.:.:.:.:.",
":.:.:.:.:.:.:.:.:.:.:.:.:.:.:.:.:.:.% o , & & % , N ; $ + -   $ @   S m o 7 S $ A C { b 2 o > q % :.:.:.:.:.:.:.:.:.:.:.:.:.:.:.",
":.:.:.:.:.:.:.:.:.:.:.:.:.:.:.:.:.: & + + $ * o @ + & - o 5 5 $ : @ o ; y 8 ....@.` G   $ % u x + @ :.:.:.:.:.:.:.:.:.:.:.:.:.:.",
":.:.:.:.:.:.:.:.:.:.:.:.:.:.:.:.;   & e D ^ x h w x . @ ; j A @ $ o 8 0 d J N $.A d T o : o & @ @ 0 $ :.:.:.:.:.:.:.:.:.:.:.:.:.",
":.:.:.:.:.:.:.:.:.:.:.:.:.:.:.:.7 s z $.#.{ %.P ) T Z h . & > o : e s P %   B ;.q   2 $ % $ & @ 7 g % :.:.:.:.:.:.:.:.:.:.:.:.:.",
":.:.:.:.:.:.:.:.:.:.:.:.:.:.:.+ % N X.` e 7 ; o o 1 *.W + > + - 2 a @ U $.c / d q 5 =.y y % * & $ $ & 6 :.:.:.:.:.:.:.:.:.:.:.:.",
":.:.:.:.:.:.:.:.:.:.:.:.:.:., n ^ > P =.9 - + - ; o D ^ v -   ; @ @ @ 0 o.x : *   ; a / P k o % + ;   o & :.:.:.:.:.:.:.:.:.:.:.",
":.:.:.:.:.:.:.:.:.:.:.:.:.:.; G  .C . - @ o < @ &   7 N [ A > $ ; , % @ U S o ; @ @ o 8 e 0   e z % % ; o :.:.:.:.:.:.:.:.:.:.:.",
":.:.:.:.:.:.:.:.:.:.:.:.:.:.2 y - ; . - - $ & + + z D 5 w / i     Z e   y m   @ 7 q % h Z o * , 5 $ : & , :.:.:.:.:.:.:.:.:.:.:.",
":.:.:.:.:.:.:.:.:.:.:.:.:.  u Q $ o h j + + s E o 0 Y ) s V z V d   y x Z -.: $ e d   e y : < o o ; @ &   ; :.:.:.:.:.:.:.:.:.:.",
":.:.:.:.:.:.:.:.:.:.:.:.:.: - 8 $ o 4 * $ + y C $   X.| J L q  .F 5 2 @ A ! # % o o $ r } N 7 o O @ % $ 8 4 :.:.:.:.:.:.:.:.:.:.",
":.:.:.:.:.:.:.:.:.:.:.:.:.o { Q $ @ i - v 9 -   > T  .{ ) h y s U &.T F P o.X 6 n - o * C e   , 6 % $ 4 P $ :.:.:.:.:.:.:.:.:.:.",
":.:.:.:.:.:.:.:.:.:.:.:.$ @ d M + y %.4 9 > $ - < H ) S / W [ z B h / B A ! 2 ; m ; o R a % : * A *   n p o O :.:.:.:.:.:.:.:.:.",
":.:.:.:.:.:.:.:.:.:.:.:.  ^ / K ) *.F . ; . + 0 H . p O.P ( &.2 ` a ..$.N A r *   o r ;.! G h & & & % ; $ ; 3 :.:.:.:.:.:.:.:.:.",
":.:.:.:.:.:.:.:.:.:.:.:.* r 5   h -.J . $ > + z -.A T T A +.^ T G +.P g o e F   4 @ , 0 e y _ 0 $ % * < + = H :.:.:.:.:.:.:.:.:.",
":.:.:.:.:.:.:.:.:.:.:.:.@ @ $ @ ^ V @ w v $ + @ - N *.v ;.Y 2 } X.;.g Q S ] K * K 2 o 8 g 6 +.w o + O V 0 & @ :.:.:.:.:.:.:.:.:.",
":.:.:.:.:.:.:.:.:.:.:.:.o %   y X.: $ < > @ $ i p T ~ w L S ( { ] ..@.T J n m u Q $ @ y { F a 0 s & 7 g * * $ :.:.:.:.:.:.:.:.:.",
":.:.:.:.:.:.:.:.:.:.:.:.0 x   Z h . $ @ & ; . S D R A V i { ` ;.Q ` Q Z { o.$./ C & y q B , &   J s @ 8 & @ % :.:.:.:.:.:.:.:.:.",
":.:.:.:.:.:.:.:.:.:.:.:.0 n @ * O = . $ >   d @.O.~ N #.P %.C %.k g J E C | #.~ h 5 m q ] h x . 0 6 . * o   , :.:.:.:.:.:.:.:.:.",
":.:.:.:.:.:.:.:.:.:.:.:.  o o + % o * >   $ x W ' I V 9 > N X.I ( F D %.%.' C x -.. o h G z o.@ o o * o u h   :.:.:.:.:.:.:.:.:.",
":.:.:.:.:.:.:.:.:.:.:.:.o r n % $ : $ O ; A n X.D P O.j f I =.' ( %.-.#.C v ' e u   s ;.R 2 z # : @ o & k y @ :.:.:.:.:.:.:.:.:.",
":.:.:.:.:.:.:.:.:.:.:.:.$ 2 0   # O o $ $ , N ;.x j ` %.-.%.I O.| N ( E n   N i @ F ;.W y $ . - @ h , ;   % 2 :.:.:.:.:.:.:.:.:.",
":.:.:.:.:.:.:.:.:.:.:.:.:.@ @ = = 5 2 o > W d W V + I F ' ~ 1 ' C 1 n D | Q ' ;.c Z K ,   ,   = > : 4   > @ :.:.:.:.:.:.:.:.:.:.",
":.:.:.:.:.:.:.:.:.:.:.:.:.; & o l r   o r P   x $ C w e %.E N I j n F e =.V ^ T ;.t   O 3 = 5 6 o $ @ r - B :.:.:.:.:.:.:.:.:.:.",
":.:.:.:.:.:.:.:.:.:.:.:.:.$ % # % : = X - ; j L J O.4 @ $ C P - ' I V Q e s ^   %   = 5 8   q c o @ * n : 4 :.:.:.:.:.:.:.:.:.:.",
":.:.:.:.:.:.:.:.:.:.:.:.:.:.% $ #   * * ; D 1 f N %.` i 9 #.H 1 #.F < & - + < q 3 = % = t 3 =   + 2 :   * :.:.:.:.:.:.:.:.:.:.:.",
":.:.:.:.:.:.:.:.:.:.:.:.:.:.O @ m p @ @ * q + o w s v N ~ f j @ > 9 | C : ; o r = ,   t ;.d   6 6 s p - @ :.:.:.:.:.:.:.:.:.:.:.",
":.:.:.:.:.:.:.:.:.:.:.:.:.:.$ o 8 4 O ,   % + ; 5 f I 4 9 e H $ & & N p Z &.F G c ] 5 X = % t g q @ % & . :.:.:.:.:.:.:.:.:.:.:.",
":.:.:.:.:.:.:.:.:.:.:.:.:.:.:.t X X = # & & q + L %.H $ + $ 1 + + @ $ 7 8 m { ..c T u ] t % _ 6   @ % o :.:.:.:.:.:.:.:.:.:.:.:.",
":.:.:.:.:.:.:.:.:.:.:.:.:.:.:.:.= O * O @ & g & N O.N V - $ $ e ; - 7 9 #     2 S 6 M ] M t B % & % r :.:.:.:.:.:.:.:.:.:.:.:.:.",
":.:.:.:.:.:.:.:.:.:.:.:.:.:.:.:.O * $ n , , ; o ; > ( I s I @ ` e   o & o 4 6 % l O q   = % % B s 2 9 :.:.:.:.:.:.:.:.:.:.:.:.:.",
":.:.:.:.:.:.:.:.:.:.:.:.:.:.:.:.:.: @ y   - & - & @ f A ~ s v O.1 , 7 < #   p l M O O % % q , , 8 3 :.:.:.:.:.:.:.:.:.:.:.:.:.:.",
":.:.:.:.:.:.:.:.:.:.:.:.:.:.:.:.:.:.* @ & ; , + &   + a C & A Y   r h   2 O 3 ..t O l d   b t O @ :.:.:.:.:.:.:.:.:.:.:.:.:.:.:.",
":.:.:.:.:.:.:.:.:.:.:.:.:.:.:.:.:.:.:.o $ % + & + a ; . V J , : & $ * o a F o.M M u % 2 % %   = :.:.:.:.:.:.:.:.:.:.:.:.:.:.:.:.",
":.:.:.:.:.:.:.:.:.:.:.:.:.:.:.:.:.:.:.:.= * @ 8 ; c 3 =   m ] o.a o @ $ o R $.C & + # O % : g :.:.:.:.:.:.:.:.:.:.:.:.:.:.:.:.:.",
":.:.:.:.:.:.:.:.:.:.:.:.:.:.:.:.:.:.:.:.:.:.% d a   O = 2 8 t u 2 $ = * o ^ 2 * * % % ; o :.:.:.:.:.:.:.:.:.:.:.:.:.:.:.:.:.:.:.",
":.:.:.:.:.:.:.:.:.:.:.:.:.:.:.:.:.:.:.:.:.:.:.@ o % Z d * X   O $ k q   x y @ @ & o c e :.:.:.:.:.:.:.:.:.:.:.:.:.:.:.:.:.:.:.:.",
":.:.:.:.:.:.:.:.:.:.:.:.:.:.:.:.:.:.:.:.:.:.:.:.:.:.= O O O 6 : o 3 : 3 C =   ; @ :.:.:.:.:.:.:.:.:.:.:.:.:.:.:.:.:.:.:.:.:.:.:.",
":.:.:.:.:.:.:.:.:.:.:.:.:.:.:.:.:.:.:.:.:.:.:.:.:.:.:.:.:.3 Z * @     =   ; :.:.:.:.:.:.:.:.:.:.:.:.:.:.:.:.:.:.:.:.:.:.:.:.:.:.",
":.:.:.:.:.:.:.:.:.:.:.:.:.:.:.:.:.:.:.:.:.:.:.:.:.:.:.:.:.:.:.:.:.:.:.:.:.:.:.:.:.:.:.:.:.:.:.:.:.:.:.:.:.:.:.:.:.:.:.:.:.:.:.:.",
":.:.:.:.:.:.:.:.:.:.:.:.:.:.:.:.:.:.:.:.:.:.:.:.:.:.:.:.:.:.:.:.:.:.:.:.:.:.:.:.:.:.:.:.:.:.:.:.:.:.:.:.:.:.:.:.:.:.:.:.:.:.:.:.",
":.:.:.:.:.:.:.:.:.:.:.:.:.:.:.:.:.:.:.:.:.:.:.:.:.:.:.:.:.:.:.:.:.:.:.:.:.:.:.:.:.:.:.:.:.:.:.:.:.:.:.:.:.:.:.:.:.:.:.:.:.:.:.:.",
":.:.:.:.:.:.:.:.:.:.:.:.:.:.:.:.:.:.:.:.:.:.:.:.:.:.:.:.:.:.:.:.:.:.:.:.:.:.:.:.:.:.:.:.:.:.:.:.:.:.:.:.:.:.:.:.:.:.:.:.:.:.:.:.",
":.:.:.:.:.:.:.:.:.:.:.:.:.:.:.:.:.:.:.:.:.:.:.:.:.:.:.:.:.:.:.:.:.:.:.:.:.:.:.:.:.:.:.:.:.:.:.:.:.:.:.:.:.:.:.:.:.:.:.:.:.:.:.:.",
":.:.:.:.:.:.:.:.:.:.:.:.:.:.:.:.:.:.:.:.:.:.:.:.:.:.:.:.:.:.:.:.:.:.:.:.:.:.:.:.:.:.:.:.:.:.:.:.:.:.:.:.:.:.:.:.:.:.:.:.:.:.:.:.",
":.:.:.:.:.:.:.:.:.:.:.:.:.:.:.:.:.:.:.:.:.:.:.:.:.:.:.:.:.:.:.:.:.:.:.:.:.:.:.:.:.:.:.:.:.:.:.:.:.:.:.:.:.:.:.:.:.:.:.:.:.:.:.:.",
":.:.:.:.:.:.:.:.:.:.:.:.:.:.:.:.:.:.:.:.:.:.:.:.:.:.:.:.:.:.:.:.:.:.:.:.:.:.:.:.:.:.:.:.:.:.:.:.:.:.:.:.:.:.:.:.:.:.:.:.:.:.:.:.",
":.:.:.:.:.:.:.:.:.:.:.:.:.:.:.:.:.:.:.:.:.:.:.:.:.:.:.:.:.:.:.:.:.:.:.:.:.:.:.:.:.:.:.:.:.:.:.:.:.:.:.:.:.:.:.:.:.:.:.:.:.:.:.:.",
":.:.:.:.:.:.:.:.:.:.:.:.:.:.:.:.:.:.:.:.:.:.:.:.:.:.:.:.:.:.:.:.:.:.:.:.:.:.:.:.:.:.:.:.:.:.:.:.:.:.:.:.:.:.:.:.:.:.:.:.:.:.:.:.",
":.:.:.:.:.:.:.:.:.:.:.:.:.:.:.:.:.:.:.:.:.:.:.:.:.:.:.:.:.:.:.:.:.:.:.:.:.:.:.:.:.:.:.:.:.:.:.:.:.:.:.:.:.:.:.:.:.:.:.:.:.:.:.:."
};
