/* XPM */
static char *result[] = {
/* columns rows colors chars-per-pixel */
"35 64 210 2 ",
"   c #00041D",
".  c #020818",
"X  c #07101F",
"o  c #1B1C17",
"O  c #21221D",
"+  c #040825",
"@  c #0B0C2A",
"#  c #0C1223",
"$  c #121A2B",
"%  c #191C2C",
"&  c #121228",
"*  c #0C1D38",
"=  c #091937",
"-  c #151D33",
";  c #131D39",
":  c #1E1F3D",
">  c #1C242F",
",  c #1B2335",
"<  c #14233D",
"1  c #1C233C",
"2  c #26262B",
"3  c #242635",
"4  c #212B3B",
"5  c #292C3A",
"6  c #25333A",
"7  c #37373B",
"8  c #37322E",
"9  c #44433C",
"0  c #0C1C42",
"q  c #0E1D4A",
"w  c #121F48",
"e  c #0C2244",
"r  c #0F244A",
"t  c #0A264B",
"y  c #132343",
"u  c #1A2645",
"i  c #152C46",
"p  c #1A2B44",
"a  c #13264B",
"s  c #152A4D",
"d  c #1A2B4D",
"f  c #19274C",
"g  c #1E324D",
"h  c #0C2955",
"j  c #162B51",
"k  c #1C2D52",
"l  c #142F59",
"z  c #1C2E59",
"x  c #172653",
"c  c #0C3955",
"v  c #1D3153",
"b  c #1D335B",
"n  c #173858",
"m  c #212443",
"M  c #242C43",
"N  c #252D4B",
"B  c #262A47",
"V  c #2C3141",
"C  c #24344B",
"Z  c #2B324E",
"A  c #2B3845",
"S  c #353A49",
"D  c #212E55",
"F  c #212759",
"G  c #232C5B",
"H  c #282F5D",
"J  c #233455",
"K  c #2A3454",
"L  c #253A55",
"P  c #2C3856",
"I  c #23355B",
"U  c #2A355A",
"Y  c #243B5D",
"T  c #2A3C5D",
"R  c #333C55",
"E  c #383854",
"W  c #343C5B",
"Q  c #343758",
"!  c #322A41",
"~  c #1A2B63",
"^  c #1B3B63",
"/  c #1C3966",
"(  c #292F61",
")  c #213664",
"_  c #2A3664",
"`  c #253B62",
"'  c #2C3D62",
"]  c #233B6C",
"[  c #2C3C6A",
"{  c #323D64",
"}  c #303F68",
"|  c #423C47",
" . c #423A54",
".. c #1C415C",
"X. c #38434A",
"o. c #27415A",
"O. c #2E425A",
"+. c #34425C",
"@. c #3B4857",
"#. c #194463",
"$. c #0C4B6E",
"%. c #2B4165",
"&. c #26436A",
"*. c #2C426A",
"=. c #254364",
"-. c #324266",
";. c #3B4463",
":. c #33456B",
">. c #39466C",
",. c #354A6C",
"<. c #3B4A6E",
"1. c #364964",
"2. c #38516D",
"3. c #2D4B72",
"4. c #334672",
"5. c #3C4574",
"6. c #364C74",
"7. c #3D4C71",
"8. c #3B4679",
"9. c #375279",
"0. c #28506A",
"q. c #43474C",
"w. c #444C53",
"e. c #4B4A52",
"r. c #43465A",
"t. c #514E53",
"y. c #48555C",
"u. c #585757",
"i. c #51594A",
"p. c #615D57",
"a. c #454663",
"s. c #474A69",
"d. c #495266",
"f. c #414D73",
"g. c #445276",
"h. c #49567E",
"j. c #5B6174",
"k. c #616369",
"l. c #696769",
"z. c #72736E",
"x. c #696875",
"c. c #736F77",
"v. c #747372",
"b. c #74737A",
"n. c #7B7C7C",
"m. c #777C7B",
"M. c #8F917A",
"N. c #3A688A",
"B. c #475A82",
"V. c #4D648C",
"C. c #6E7483",
"Z. c #7C7A82",
"A. c #737884",
"S. c #7F7C91",
"D. c #6E6B96",
"F. c #4C6EB6",
"G. c #707CA2",
"H. c #8463BC",
"J. c #17838D",
"K. c #45828E",
"L. c #7B8287",
"P. c #658EAA",
"I. c #3FADC4",
"U. c #22B0C4",
"Y. c #57A5CB",
"T. c #65ACC8",
"R. c #3FC5CE",
"E. c #1CFCC6",
"W. c #20FFD8",
"Q. c #3CFDDE",
"!. c #2CFFF4",
"~. c #3BFBEC",
"^. c #59DBCF",
"/. c #6FD9D2",
"(. c #56E3C8",
"). c #47FFED",
"_. c #52ECE2",
"`. c #64E1F7",
"'. c #848483",
"]. c #848589",
"[. c #868893",
"{. c #959593",
"}. c #94989C",
"|. c #989A8F",
" X c #9CA293",
".X c #A5A699",
"XX c #9E9DA5",
"oX c #A29DA2",
"OX c #B1AFA1",
"+X c #AEB5AE",
"@X c #B4B5A7",
"#X c #BABCBA",
"$X c #BBB9B7",
"%X c #BCC0B9",
"&X c #B9B9C5",
"*X c #8BDFD3",
"=X c #98CDD2",
"-X c #C6C4C9",
";X c #D4D7CE",
":X c #D0CFD7",
">X c #D5D6D9",
",X c #C4C0D6",
"<X c #E2DCDC",
"1X c #D6DBE1",
"2X c #E5DFE1",
"3X c #F3EFF0",
"4X c #FDFDFE",
"5X c #F7F8F8",
"6X c #EBE8EE",
"7X c None",
/* pixels */
"7X7X7X7X7X7X7X7X7X7X7X7X7X7X7X7X7X7X7X7X7X7X7X7X7X7X7X7X7X7X7X7X7X7X7X",
"7X7X7X7X7X7X7X7X7X7X7X7X7X7X7X7X7X7X7X7X7X7X7X7X7X7X7X7X7X7X7X7X7X7X7X",
"7X7X7X7X7X7X7X7X7X7X7X7X7X7X7X7X7X7X7X7X7X7X7X7X7X7X7X7X7X7X7X7X7X7X7X",
"7X7X7X7X7X7X7X7X7X7X7X7X7X7X7X=X/.W.^.=X*X7X7X7X7X7X7X7X7X7X7X7X7X7X7X",
"7X7X7X7X7X7X7X7X7X7X7X7X7X7X7X/.Q.J.T.).(.7X7X7X7X7X7X7X7X7X7X7X7X7X7X",
"7X7X7X7X7X7X7X7X7X7X7X7X7X7X7X_.F.$.~ R.(.7X7X7X7X7X7X7X7X7X7X7X7X7X7X",
"7X7X7X7X7X7X7X7X7X7X7X7X7X7X7X~.D.Y.G.Y.E.7X7X7X7X7X7X7X7X7X7X7X7X7X7X",
"7X7X7X7X7X7X7X7X7X7X7X7X7X7X7X!.G.U.F.`.E.7X7X7X7X7X7X7X7X7X7X7X7X7X7X",
"7X7X7X7X7X7X7X7X7X7X7X7X7X7X7XK.B.V.9.N.P.7X7X7X7X7X7X7X7X7X7X7X7X7X7X",
"7X7X7X7X7X7X7X7X7X7X7X7X .W ..c I :.^ ^ n 2.@.q.7X7X7X7X7X7X7X7X7X7X7X",
"7X7X7X7X7X7X7X7Xm = = f H G I &.d z z [ v d y p 0 = @ 7X7X7X7X7X7X7X7X",
"7X7X7X7X7X7X7X7X_ [ 4.9.8.} } ) ,.*.{ 5.8.5.%.:.B.g.U s.7X7X7X7X7X7X7X",
"7X7X7X7X7X7Xd.6 _ =.#.c v ' { _ =.I J G _ ) b l t ^ g T Z 7X7X7X7X7X7X",
"7X7X7X7X7X7X@.1.-.Y ..=.%.W T %.o.%.>.[ } 4.6.3.3.,.o.o.* 7X7X7X7X7X7X",
"7X7X7X7X- u s h T j j n J g v ..v v Y n b h k z t s ` b *.= f f.7X7X7X",
"7X7X7X& +.b 9.#.%.1.,.>.>.:.=.#.%.n ....0.n *.-.:.' ] ] ] ] x q 7X7X7X",
"7X7X7X< =./ g.E 5 3 3 8 > 2 V E r.E s.a.r.E a.E E | t.r.s._ t h 7X7X7X",
"7X7X7X; l l h.+ Z.}.| H.z.L.e.&X|.7 v.{.{.| '.#X].m.n.e.a.I j 7X7X7X7X",
"7X7X7X- *.) B.  k.n.e.b.XX[.l.:X{.o u.|.'.O z.%XL.L.].X.s.7X7X7X7X7X7X",
"7X7X7X  k z -.Z X . & . V X > , P m E R : Z a.Z C X.y.6 P 7X7X7X7X7X7X",
"7X7X7X7XY b a K 1.T T J < J T y ` x q I I x 0 a y u < a x _ k ;.7X7X7X",
"7X7X7X7X<.6.j D s G a I k ' k I s o.o.= L L n s _ I u ' ~ 8._ 7X7X7X7X",
"7X7X7X7Xf *.I >.w H D G [ D a k g < f p L < C L F d s ` z [ I 7X7X7X7X",
"7X7X7X7X+.6.a -.Q { K K m U U Q } G F f.F _ _ H ' P o.Y ) ' O.7X7X7X7X",
"7X7X7X7XK 4.z :.d A ].2 m.A k.u.$ U x 6 z.9 M.w.p.l., O.6.T C 7X7X7X7X",
"7X7X7X7XK *.z :.= A.5Xv.4X}.>X3X, J T d.3XH.5X+X@X5X, d Y Y J 7X7X7X7X",
"7X7X7X7XK :.z :.1 C.4Xu.4X].>X<X$ w J @.4Xn.3X#XOX4X4 P ' [ J 7X7X7X7X",
"7X7X7X7XK 4.z 4.= q.'.8 '.q.k.l.1 ' g 6 |.| c.i.9 m.# C :.*.' 7X7X7X7X",
"7X7X7X7XK 4.z :.C k.3Xp.:Xl.-X$X$ [ I X.;Xn.,X|..X#XE +.*.' I 7X7X7X7X",
"7X7X7X7XK *.z :.+ C.4Xv.4X}.2X2X- F b @.4Xc.5X+X$X5XM f ) *.O.7X7X7X7X",
"7X7X7X7XP 3.z :.v j.>Xe.1XA.#XoX4 F I y.;Xx.,X}.{.&XQ J [ %.L 7X7X7X7X",
"7X7X7X7XK :.z :.Y - 7 > , > 5 3 M _ ( 4 2 5 & 2 2 % m k [ J L 7X7X7X7X",
"7X7X7X7XJ 4.b -.Y C < - & 1 $ u I d T d * d D f u k d ) %.%.g 7X7X7X7X",
"7X7X7X7XK 4.z -.s T @.L.b.[.d.M I k I k k [ ;.{ ' ' v ) %.%.J 7X7X7X7X",
"7X7X7X7XK 4.z -.f +.w.#X|.#XC.- J v j a T f.>.,.<.,.v I ' %.J 7X7X7X7X",
"7X7X7X7XU 4.z -.z P X.@XM.@XL.# n v a 0 T f.{ >.<.:.v Y %.%.J 7X7X7X7X",
"7X7X7X7XK 4.z -.z P w..XM..X[.- I I d e ' g.-.>.<.-.k b ` %.J 7X7X7X7X",
"7X7X7X7XU 4.z -.z K w.n.v.v.c., J v J j ' f.>.<.g.1.z n Y T C 7X7X7X7X",
"7X7X7X7XK 4.z -.b N Z E S S Z 1 d k [ J D -.{ { -.' k I Y ' J 7X7X7X7X",
"7X7X7X7XK 4.z -.n J d 4 w B 1 J I I ,.-.d I J J k J v ) %.%.g 7X7X7X7X",
"7X7X7X7XP *.b } n a f a d y s e L v ' J y d d y y k y ) *.T J 7X7X7X7X",
"7X7X7X7XP *.b } v f T ' >.' %.I d s T v k { { { T ' f b %.Y L 7X7X7X7X",
"7X7X7X7XU *.z } k k } s.g.{ f.-.i d I j T f.>.g.>.,.x I ` T L 7X7X7X7X",
"7X7X7X7XU *.I } D f { { >.{ >.{ x v v i T <.T >.>.,.s ^ %.%.L 7X7X7X7X",
"7X7X7X7XP *.b } J d { { <.{ ,.:.k I J a ' 5.' >.>.:.d Y *.o.J 7X7X7X7X",
"7X7X7X7XR *.z } k d { <.g.>.g.:.k j I j ' f.>.7.<.,.s I ` T J 7X7X7X7X",
"7X7X7X7XR *.b } v a U _ <.' *.L z x I b G 4.:.} T -.j ) ' Y L 7X7X7X7X",
"7X7X7X7XP *.~ } Y s v d U d I s Y j _ b f U H x f I s ' *.O.J 7X7X7X7X",
"7X7X7X7XP *.I } n y a d 0 y s 0 v v I y a D y a y k r ` *.T P 7X7X7X7X",
"7X7X7X7XT *.z } I j _ >.{ -.,.Y s v I s J -.U { ' %.j Y =.T L 7X7X7X7X",
"7X7X7X7XQ *.z } s a U s.>.>.6.%.d k J j ' f.>.7.,.,.j b %.T P 7X7X7X7X",
"7X7X7X7XU *.b } J k { f.{ { 7.1.k k k s T f.-.>.,.,.j ` %.%.J 7X7X7X7X",
"7X7X7X7XP *.b } J d { f.{ { >.{ k d v f T <.{ >.,.:.j b *.%.K 7X7X7X7X",
"7X7X7X7XT *.b } f f T f.>.>.<.{ s k v s T f.>.7.,.,.j b ` L K 7X7X7X7X",
"7X7X7X7XP *.G } I j ' f.<.<.7.%.s v J s I <.-.7.1.:.s Y ` T L 7X7X7X7X",
"7X7X7X7XP *.b } I a k U J I =.v v I I a D { U ' J %.j =.*.T J 7X7X7X7X",
"7X7X7X7X@.9.0 b g g g g g g g g v v g v v v v v v i j v L L ,.7X7X7X7X",
"7X7X7X7Xy b v j r i a a a r h s s s r s a a a a s i s s s j v 7X7X7X7X",
"7X7X7Xj.y v &.l / / / ^ ) / ) ^ ) ) ) ) / ) ) ) n v v v n v j j 7X7X7X",
"7X7X7X$ T %.3.4.[ *.[ [ [ *.[ ' %.%.=.=.%.=.%.=.%.*.*.=.%.,.%.J e.7X7X",
"7X7X7XV ;.T u d C C C J C C C C C C C C C C C C g K P C J T K d u.7X7X",
"7X7X7X7X7X7X7X7X7X7X7X7X7X7X7X7X7X7X7X7X7X7X7X7X7X7X7X7X7X7X7X7X7X7X7X",
"7X7X7X7X7X7X7X7X7X7X7X7X7X7X7X7X7X7X7X7X7X7X7X7X7X7X7X7X7X7X7X7X7X7X7X",
"7X7X7X7X7X7X7X7X7X7X7X7X7X7X7X7X7X7X7X7X7X7X7X7X7X7X7X7X7X7X7X7X7X7X7X"
};
