/* XPM */
static char *result[] = {
/* columns rows colors chars-per-pixel */
"35 37 204 2 ",
"   c #000616",
".  c #00041D",
"X  c #060C1C",
"o  c #07101F",
"O  c #1B1C17",
"+  c #21221D",
"@  c #040825",
"#  c #0B0C2A",
"$  c #0C1222",
"%  c #121A2B",
"&  c #191C2C",
"*  c #121228",
"=  c #0C1934",
"-  c #0C1D38",
";  c #091936",
":  c #151D33",
">  c #131D39",
",  c #1C242F",
"<  c #1C2434",
"1  c #13243D",
"2  c #1F253B",
"3  c #26262B",
"4  c #37322E",
"5  c #242635",
"6  c #212B3B",
"7  c #292C3A",
"8  c #25333A",
"9  c #37373B",
"0  c #44433C",
"q  c #0B1C42",
"w  c #0E1D4A",
"e  c #131E4B",
"r  c #0C244A",
"t  c #142441",
"y  c #1A2645",
"u  c #152C46",
"i  c #1A2B44",
"p  c #14254B",
"a  c #132B4C",
"s  c #1A2B4C",
"d  c #19274C",
"f  c #1E314D",
"g  c #0C2955",
"h  c #152951",
"j  c #1C2D54",
"k  c #152F59",
"l  c #1C2E59",
"z  c #162755",
"x  c #0C3955",
"c  c #1B3254",
"v  c #1C335B",
"b  c #173858",
"n  c #242C43",
"m  c #242848",
"M  c #322A41",
"N  c #2C3141",
"B  c #29354A",
"V  c #363B47",
"C  c #222E55",
"Z  c #212759",
"A  c #232C5B",
"S  c #282F5D",
"D  c #233455",
"F  c #2A3454",
"G  c #243B54",
"H  c #2A3A56",
"J  c #23355B",
"K  c #2B355A",
"L  c #243D5C",
"P  c #2A3C5C",
"I  c #353C54",
"U  c #383854",
"Y  c #303459",
"T  c #343C5B",
"R  c #373A57",
"E  c #1A2B63",
"W  c #1B3B63",
"Q  c #1C3966",
"!  c #292F61",
"~  c #263363",
"^  c #2A3664",
"/  c #253C63",
"(  c #2B3C63",
")  c #233B6C",
"_  c #2C3C6A",
"`  c #313D65",
"'  c #333D6B",
"]  c #423C47",
"[  c #423A54",
"{  c #1C415C",
"}  c #38434C",
"|  c #27415A",
" . c #2E425A",
".. c #34425C",
"X. c #3F4E51",
"o. c #0C4B6E",
"O. c #194463",
"+. c #254364",
"@. c #2C4263",
"#. c #26436A",
"$. c #2D436A",
"%. c #324165",
"&. c #33456D",
"*. c #39466D",
"=. c #344B6D",
"-. c #394866",
";. c #38516D",
":. c #2D4B71",
">. c #334672",
",. c #3C4574",
"<. c #364C74",
"1. c #3C4C73",
"2. c #3B4679",
"3. c #325179",
"4. c #39557D",
"5. c #28506A",
"6. c #434A4E",
"7. c #43444B",
"8. c #444C55",
"9. c #454658",
"0. c #514E53",
"q. c #48555C",
"w. c #595855",
"e. c #51594A",
"r. c #615D57",
"t. c #454663",
"y. c #474A69",
"u. c #495266",
"i. c #404E73",
"p. c #46547A",
"a. c #5C6172",
"s. c #616369",
"d. c #696769",
"f. c #72736E",
"g. c #6A6972",
"h. c #6A6375",
"j. c #736F77",
"k. c #747371",
"l. c #7C7B7D",
"z. c #76777A",
"x. c #3A688A",
"c. c #475A82",
"v. c #4D648C",
"b. c #6E7483",
"n. c #7C7A82",
"m. c #737885",
"M. c #7F7C91",
"N. c #6E6B96",
"B. c #4C6EB6",
"V. c #707CA2",
"C. c #8463BC",
"Z. c #17838D",
"A. c #418288",
"S. c #488194",
"D. c #7A8187",
"F. c #658EAA",
"G. c #3FADC4",
"H. c #22B0C4",
"J. c #57A5CB",
"K. c #65ACC8",
"L. c #3FC5CE",
"P. c #1CFCC6",
"I. c #20FFD8",
"U. c #3CFDDE",
"Y. c #2CFFF4",
"T. c #3BFBEC",
"R. c #59DBCF",
"E. c #6FD9D2",
"W. c #56E3C8",
"Q. c #52ECE2",
"!. c #47FFED",
"~. c #64E1F7",
"^. c #848483",
"/. c #848589",
"(. c #878793",
"). c #959593",
"_. c #939A9F",
"`. c #959699",
"'. c #9CA293",
"]. c #A2A094",
"[. c #9E9DA5",
"{. c #A29DA2",
"}. c #B1AFA1",
"|. c #AEB5AE",
" X c #BABAB8",
".X c #B4B2A6",
"XX c #BCC0B9",
"oX c #B9B9C5",
"OX c #8BDFD3",
"+X c #98CDD2",
"@X c #C6C4C9",
"#X c #D4D7CE",
"$X c #D0CFD7",
"%X c #D5D6D9",
"&X c #C4C0D6",
"*X c #E2DCDC",
"=X c #D6DBE1",
"-X c #E5DFE1",
";X c #F1EBED",
":X c #F3EFF0",
">X c #FDFDFE",
",X c #F7F8F8",
"<X c #E8E7EF",
"1X c None",
/* pixels */
"1X1X1X1X1X1X1X1X1X1X1X1X1X1X1X1X1X1X1X1X1X1X1X1X1X1X1X1X1X1X1X1X1X1X1X",
"1X1X1X1X1X1X1X1X1X1X1X1X1X1X1X1X1X1X1X1X1X1X1X1X1X1X1X1X1X1X1X1X1X1X1X",
"1X1X1X1X1X1X1X1X1X1X1X1X1X1X1X1X1X1X1X1X1X1X1X1X1X1X1X1X1X1X1X1X1X1X1X",
"1X1X1X1X1X1X1X1X1X1X1X1X1X1X1X+XE.I.R.+XOX1X1X1X1X1X1X1X1X1X1X1X1X1X1X",
"1X1X1X1X1X1X1X1X1X1X1X1X1X1X1XE.U.Z.K.!.W.1X1X1X1X1X1X1X1X1X1X1X1X1X1X",
"1X1X1X1X1X1X1X1X1X1X1X1X1X1X1XQ.S.o.E L.W.1X1X1X1X1X1X1X1X1X1X1X1X1X1X",
"1X1X1X1X1X1X1X1X1X1X1X1X1X1X1XT.N.J.C.G.P.1X1X1X1X1X1X1X1X1X1X1X1X1X1X",
"1X1X1X1X1X1X1X1X1X1X1X1X1X1X1XY.V.H.B.~.P.1X1X1X1X1X1X1X1X1X1X1X1X1X1X",
"1X1X1X1X1X1X1X1X1X1X1X1X1X1X1XA.p.v.3.x.F.1X1X1X1X1X1X1X1X1X1X1X1X1X1X",
"1X1X1X1X1X1X1X1X1X1X1X1X[ R L x ( :.W W b ;.9.7.1X1X1X1X1X1X1X1X1X1X1X",
"1X1X1X1X1X1X1X1Xm - - s A C J #.d v v _ l s 1 i q ; # 1X1X1X1X1X1X1X1X",
"1X1X1X1X1X1X1X1XS @.:.3.2.>.' ~ =.@.` ,.2.,.$.$.c.4.K y.1X1X1X1X1X1X1X",
"1X1X1X1X1X1Xq.8 K / O.x v ( ` ^ @.J A A ~ ~ Q k r L f P N 1X1X1X1X1X1X",
"1X1X1X1X1X1X..=.%./ { | @.P ( | L @.*.( &.&.>.:.;.=.L P > 1X1X1X1X1X1X",
"1X1X1X1X: y a g L c a b F C f { c c | k b r k k r a #.v _ ; y i.1X1X1X",
"1X1X1X* ..D 3.Q %.$.=.=.*.&.#.O.@.b { { 5.L @.' =./ ) ) ) ) z e 1X1X1X",
"1X1X1X1 / W p.U 8 , 3 4 & 5 M } ..R y.9.9.R y.U [ ] e.8.y.^ g g 1X1X1X",
"1X1X1X> v l p.@ l.).X.C.h./.0.oX).0 k.).).] ^. X^.C.z.X.-.D z 1X1X1X1X",
"1X1X1X: $.) c.@ s.n.0.j.[.`.s.$X).O w.).^.+ k. Xl.^.^.X.u.1X1X1X1X1X1X",
"1X1X1X. s k %.m $   %   n X , < B m T R > B t.F 8 } X.8 H 1X1X1X1X1X1X",
"1X1X1X1XL v p F -.H P D 1 C H t ^ h w ~ v h q p p y 1 y p ^ Z %.1X1X1X",
"1X1X1X1X*.<.z D p v p J k ( j J u L | ; | G G u ~ D u ( E 2.^ 1X1X1X1X",
"1X1X1X1Xi $.J *.d A D A ` Z p c f 1 s i G t f G j j a ( Q $.F 1X1X1X1X",
"1X1X1X1X` <.p %.Y ` F F m Y F K ' A Z i.Z ^ ~ S K K P L J /  .1X1X1X1X",
"1X1X1X1XF :.l &.a } D.3 D.} d.w.% J p } l.U M.6.r.g.< P 1.P D 1X1X1X1X",
"1X1X1X1XF &.l &.; m.,Xf.,X_.#X:X< C L q.:Xn.,X X.X,X< i L L D 1X1X1X1X",
"1X1X1X1XF >.l &.y j.>Xr.>X/.%X*X% e j 6.,Xl.:X X}.>X7 G _ @.D 1X1X1X1X",
"1X1X1X1XF &.l *.= ] ^.4 D.7.s.d.6 ^ j 8 ].0 j.e.0 l.o D $.$.( 1X1X1X1X",
"1X1X1X1XF $.v *.D a.;Xr.%Xs.@X X% ^ A X.#Xk.@X'.'. XI %.$._ J 1X1X1X1X",
"1X1X1X1XF :.l &.@ b.>Xf.>X[.-X*X: A l 8.,Xj.>X|. X,X7 a J _ P 1X1X1X1X",
"1X1X1X1XF >.l &.c a.%X0.=Xm.oX{.6 l ~ q.$Xh.&X`.`.@XB C _ @.G 1X1X1X1X",
"1X1X1X1XF $.l &.D : 9 & < , 7 3 n ~ E 8 3 M * 3 7 * m j $.G H 1X1X1X1X",
"1X1X1X1XJ >.v %.G f 1 : * 2 = 1 c s L j - j j y y j d / $.@.D 1X1X1X1X",
"1X1X1X1XF >.l %.1X1X1X1X1X(.u.n J j J c C ` %.%.( ( c J ( @.D 1X1X1X1X",
"1X1X1X1XF >.1X1X1X1X1X1X1X1X1X: D c j p P i.*.*.1.=.v 1X1X1X1X1X1X1X1X",
"1X1X1X1X1X1X1X1X1X1X1X1X1X1X1X1XJ c p - K 1.%.*.1X1X1X1X1X1X1X1X1X1X1X",
"1X1X1X1X1X1X1X1X1X1X1X1X1X1X1X1X1X1Xs r ` p.1X1X1X1X1X1X1X1X1X1X1X1X1X"
};
